<svg width="130" height="130" viewBox="0 0 130 130" fill="none" xmlns="http://www.w3.org/2000/svg">
<circle cx="65" cy="65" r="65" fill="#D53F34"/>
<circle cx="65" cy="65" r="30" fill="white"/>
<path d="M70.7857 64.737C70.3883 63.4904 68.8375 62.5365 67.5011 62.6637C66.4929 62.7596 65.7756 63.2583 65.2528 64.099C65.1412 64.2784 65.0679 64.378 64.9996 64.4027C64.9312 64.378 64.8579 64.2786 64.7463 64.099C64.2235 63.2583 63.506 62.7598 62.498 62.6637C61.1616 62.5365 59.6108 63.4906 59.2135 64.737C58.7237 66.2727 59.0072 67.6137 60.1795 68.748C60.9048 69.4496 61.6087 70.1734 62.3235 70.8861C63.174 71.7338 64.0267 72.5816 64.8985 73.4492C64.8985 73.4492 64.9565 73.519 64.9967 73.5529C64.9977 73.5519 64.9986 73.551 64.9997 73.5498C65.0007 73.5508 65.0016 73.5517 65.0028 73.5529C65.0432 73.519 65.101 73.4492 65.101 73.4492C65.9728 72.5816 66.8255 71.7338 67.676 70.8861C68.3908 70.1734 69.0947 69.4496 69.82 68.748C70.9919 67.6137 71.2754 66.2727 70.7857 64.737Z" fill="#D53F34"/>
<path d="M75.9413 62.2659C74.7915 60.3447 73.1539 59.0262 70.9328 58.5327C70.8882 58.5228 70.844 58.5091 70.7989 58.503C70.2351 58.4269 69.8291 58.5721 69.671 58.944C69.478 59.3984 69.7108 59.7454 70.0134 60.0502C70.7166 60.7589 71.4069 61.4822 72.1393 62.1594C73.4457 63.3671 73.9735 64.86 73.8929 66.6195C73.827 68.0539 73.3284 69.2913 72.3195 70.3035C70.2856 72.344 68.2375 74.3702 66.2015 76.4086C65.844 76.7665 65.4515 77.0074 65 77.0212C64.5484 77.0074 64.1559 76.7665 63.7984 76.4086C61.7624 74.3702 59.7144 72.344 57.6805 70.3035C56.6715 69.2913 56.1729 68.0539 56.107 66.6195C56.0262 64.86 56.5543 63.3671 57.8606 62.1594C58.5931 61.4822 59.2834 60.7589 59.9865 60.0502C60.2889 59.7454 60.522 59.3984 60.3289 58.944C60.1708 58.5721 59.7648 58.4269 59.201 58.503C59.1559 58.5091 59.1119 58.5228 59.0671 58.5327C56.8462 59.0262 55.2084 60.3447 54.0586 62.2659C53.0791 63.9025 52.8638 65.72 53.0727 67.6011C53.2823 69.489 54.0348 71.1279 55.3561 72.472C57.3515 74.5023 59.3533 76.5275 61.4066 78.4976C62.4216 79.4714 63.656 79.9691 64.8987 79.9982V79.9997C64.9325 80.0003 64.9663 79.9991 65 79.999C65.0338 79.9991 65.0676 80.0003 65.1012 79.9997V79.9982C66.3439 79.9691 67.5784 79.4714 68.5933 78.4976C70.6467 76.5275 72.6485 74.5023 74.6438 72.472C75.9649 71.1279 76.7176 69.489 76.9272 67.6011C77.1363 65.72 76.9208 63.9025 75.9413 62.2659Z" fill="#D53F34"/>
<path d="M64.9999 59.0779C67.4884 59.0779 69.5057 57.0457 69.5057 54.539C69.5057 52.0322 67.4884 50 64.9999 50C62.5114 50 60.4941 52.0322 60.4941 54.539C60.4941 57.0457 62.5114 59.0779 64.9999 59.0779Z" fill="#D53F34"/>
<path d="M70.0339 21.3565C69.1017 21.244 68.2917 20.9321 67.6038 20.4208C66.916 19.9094 66.4066 19.2268 66.0757 18.373C65.7447 17.5192 65.6483 16.5247 65.7862 15.3896C65.9254 14.2451 66.2579 13.2976 66.7838 12.5472C67.3151 11.7927 67.9756 11.2513 68.7655 10.923C69.5607 10.5906 70.4197 10.48 71.3425 10.5914C71.9546 10.6652 72.5113 10.8205 73.0128 11.0571C73.5149 11.289 73.9461 11.5933 74.3063 11.9699C74.6719 12.3424 74.953 12.7809 75.1496 13.2853C75.3468 13.7851 75.444 14.3418 75.441 14.9554L73.1953 14.6844C73.1877 14.3932 73.1343 14.125 73.0351 13.8798C72.9407 13.6352 72.8019 13.4209 72.6189 13.237C72.4405 13.0536 72.227 12.9041 71.9783 12.7885C71.7349 12.6687 71.4602 12.5903 71.1542 12.5534C70.6174 12.4886 70.1277 12.5675 69.6851 12.7902C69.2477 13.0087 68.8849 13.36 68.5968 13.844C68.3139 14.3239 68.128 14.9297 68.0391 15.6614C67.9484 16.4072 67.985 17.0494 68.1488 17.588C68.3132 18.1218 68.5822 18.5422 68.9557 18.849C69.3293 19.1559 69.782 19.3414 70.314 19.4056C70.6106 19.4414 70.8909 19.4348 71.1548 19.3857C71.4188 19.3366 71.6587 19.249 71.8747 19.1227C72.0907 18.9965 72.2777 18.8334 72.4358 18.6336C72.5991 18.4296 72.7214 18.1897 72.8027 17.914L75.0485 18.1849C74.9332 18.6613 74.7332 19.1083 74.4483 19.5261C74.1682 19.9444 73.8113 20.3059 73.3778 20.6106C72.9448 20.9105 72.4474 21.1313 71.8856 21.273C71.3244 21.4099 70.7071 21.4377 70.0339 21.3565Z" fill="white"/>
<path d="M79.3174 23.5648C78.5621 23.2978 77.9643 22.9061 77.5242 22.3896C77.0902 21.8703 76.8257 21.2705 76.7307 20.5902C76.6418 19.907 76.7337 19.1825 77.0064 18.4165C77.2822 17.6417 77.6699 17.0192 78.1694 16.549C78.675 16.0759 79.2597 15.7762 79.9236 15.6498C80.5936 15.5206 81.3062 15.5894 82.0616 15.8564C82.8215 16.1249 83.4184 16.5188 83.8524 17.0381C84.2925 17.5546 84.557 18.1544 84.6459 18.8376C84.7409 19.5179 84.6505 20.2454 84.3746 21.0203C84.1019 21.7862 83.7128 22.4057 83.2073 22.8788C82.7078 23.349 82.123 23.6488 81.4531 23.778C80.7891 23.9043 80.0773 23.8333 79.3174 23.5648ZM79.9063 21.953C80.2505 22.0746 80.5729 22.0808 80.8734 21.9714C81.1756 21.8576 81.4451 21.652 81.6817 21.3546C81.9229 21.0588 82.1204 20.695 82.2742 20.263C82.4295 19.8266 82.5063 19.4201 82.5045 19.0434C82.5072 18.6684 82.4264 18.3441 82.2622 18.0704C82.0979 17.7968 81.8437 17.5992 81.4996 17.4776C81.1509 17.3544 80.8241 17.3467 80.519 17.4544C80.2184 17.5638 79.9483 17.7641 79.7088 18.0555C79.4737 18.3484 79.2784 18.7131 79.1231 19.1495C78.9693 19.5814 78.8903 19.9872 78.886 20.3667C78.8862 20.7478 78.9676 21.0773 79.1303 21.3554C79.299 21.6306 79.5577 21.8298 79.9063 21.953Z" fill="white"/>
<path d="M88.5359 22.5283L86.1847 26.4621L84.2961 25.3417L88.3651 18.5335L90.2232 19.6358L89.4989 20.8477L89.5661 20.8875C89.9612 20.5775 90.397 20.4071 90.8735 20.3763C91.35 20.3456 91.8429 20.4813 92.3522 20.7835C92.8249 21.0639 93.1746 21.4116 93.4013 21.8265C93.6321 22.2439 93.7312 22.7014 93.6987 23.199C93.6662 23.6967 93.491 24.2114 93.1732 24.7432L90.5855 29.0729L88.6968 27.9525L91.0844 23.9577C91.3318 23.5436 91.418 23.1548 91.3427 22.7912C91.2699 22.4235 91.044 22.1273 90.6651 21.9025C90.4125 21.7526 90.1544 21.6765 89.8908 21.6741C89.6297 21.6677 89.3823 21.7354 89.1485 21.8771C88.9148 22.0189 88.7106 22.236 88.5359 22.5283Z" fill="white"/>
<path d="M99.8997 26.5349L98.8367 27.8111L95.1525 24.7651L96.2155 23.4889L99.8997 26.5349ZM98.2614 22.7306L99.953 24.1291L95.2285 29.8014C95.0589 30.005 94.9789 30.1936 94.9883 30.3672C95.0008 30.5372 95.1074 30.7051 95.3082 30.8711C95.3739 30.9254 95.4514 30.9803 95.5408 31.0358C95.6302 31.0912 95.7101 31.1358 95.7806 31.1696L94.9949 32.6567C94.7634 32.5574 94.5494 32.448 94.353 32.3286C94.1603 32.2123 93.98 32.0847 93.8121 31.9459C93.2026 31.442 92.8575 30.9019 92.7768 30.3255C92.6991 29.7455 92.8904 29.1791 93.3507 28.6265L98.2614 22.7306Z" fill="white"/>
<path d="M97.1097 35.1699C96.7757 34.7956 96.5404 34.4003 96.4037 33.984C96.2737 33.568 96.2642 33.1592 96.3753 32.7574C96.4863 32.3556 96.7368 31.982 97.1267 31.6367C97.4599 31.3416 97.7899 31.1568 98.1168 31.0822C98.4472 31.0045 98.7745 31.0086 99.0986 31.0945C99.4228 31.1804 99.7384 31.3244 100.046 31.5265C100.353 31.7285 100.653 31.9653 100.946 32.2368C101.284 32.5511 101.561 32.7983 101.779 32.9784C101.997 33.1585 102.18 33.268 102.329 33.3068C102.485 33.3461 102.624 33.3107 102.748 33.2009L102.775 33.1773C103.02 32.9607 103.14 32.7151 103.136 32.4404C103.135 32.1693 103.01 31.8942 102.761 31.6152C102.5 31.3221 102.225 31.1454 101.936 31.085C101.654 31.0249 101.389 31.0546 101.14 31.1739L99.9055 29.5453C100.336 29.3028 100.784 29.1784 101.248 29.1721C101.715 29.1627 102.179 29.2735 102.639 29.5046C103.106 29.7361 103.55 30.0884 103.972 30.5616C104.265 30.89 104.507 31.2388 104.697 31.6081C104.887 31.9773 105.004 32.3507 105.049 32.7281C105.1 33.106 105.06 33.4768 104.928 33.8405C104.795 34.2043 104.554 34.5416 104.203 34.8524L100.194 38.4028L98.8 36.8402L99.6294 36.1056L99.5915 36.0633C99.3186 36.1343 99.0404 36.1531 98.7568 36.1198C98.4768 36.0833 98.1968 35.99 97.9167 35.8397C97.6402 35.6863 97.3712 35.463 97.1097 35.1699ZM98.6681 34.6336C98.8824 34.8738 99.1193 35.0433 99.3788 35.1421C99.6451 35.2414 99.9054 35.27 100.16 35.228C100.421 35.1864 100.654 35.0746 100.86 34.8925L101.493 34.3322C101.417 34.311 101.323 34.267 101.213 34.2003C101.106 34.1372 100.993 34.0603 100.874 33.9696C100.755 33.879 100.638 33.7868 100.522 33.693C100.411 33.5961 100.308 33.5098 100.215 33.4341C100.014 33.2649 99.8163 33.1363 99.6233 33.048C99.4339 32.9566 99.2497 32.9173 99.0709 32.9303C98.8988 32.9436 98.7348 33.0194 98.5788 33.1575C98.3555 33.3553 98.2579 33.5872 98.2859 33.8532C98.3138 34.1192 98.4413 34.3794 98.6681 34.6336Z" fill="white"/>
<path d="M102.878 42.8627C102.46 42.1703 102.249 41.4862 102.245 40.8104C102.245 40.1322 102.427 39.5024 102.79 38.921C103.157 38.3372 103.686 37.8383 104.377 37.4243C105.076 37.0054 105.77 36.7713 106.46 36.722C107.152 36.6767 107.797 36.8142 108.394 37.1345C108.991 37.4548 109.498 37.9591 109.913 38.6474C110.27 39.2386 110.474 39.8194 110.525 40.3898C110.578 40.9643 110.488 41.4979 110.255 41.9909C110.021 42.4838 109.647 42.9007 109.134 43.2415L108.063 41.468C108.271 41.2993 108.429 41.1111 108.536 40.9036C108.643 40.696 108.691 40.4772 108.679 40.2471C108.667 40.0169 108.592 39.7865 108.453 39.5557C108.277 39.2641 108.043 39.0565 107.753 38.9329C107.469 38.8108 107.138 38.7803 106.76 38.8415C106.388 38.9043 105.987 39.0647 105.556 39.3229C105.125 39.581 104.791 39.8613 104.553 40.1638C104.317 40.4704 104.183 40.7796 104.15 41.0917C104.119 41.4077 104.192 41.7115 104.368 42.003C104.564 42.327 104.83 42.5394 105.168 42.6403C105.51 42.7388 105.877 42.7061 106.271 42.542L107.341 44.3155C106.804 44.5988 106.26 44.7343 105.711 44.7219C105.165 44.7071 104.647 44.546 104.157 44.2385C103.671 43.9287 103.245 43.4701 102.878 42.8627Z" fill="white"/>
<path d="M114.193 47.7921L112.652 48.4208L110.838 44.0069L112.378 43.3782L114.193 47.7921ZM114.541 43.667L115.375 45.6936L108.529 48.4878C108.283 48.5881 108.123 48.717 108.05 48.8747C107.981 49.0306 107.995 49.2288 108.094 49.4692C108.127 49.548 108.169 49.6327 108.222 49.7235C108.275 49.8143 108.324 49.8911 108.37 49.9539L106.975 50.8986C106.818 50.7025 106.681 50.5058 106.564 50.3084C106.448 50.1155 106.349 49.9184 106.267 49.7173C105.967 48.9871 105.917 48.3488 106.117 47.8022C106.322 47.2539 106.758 46.8436 107.426 46.5714L114.541 43.667Z" fill="white"/>
<path d="M119.742 61.1313L119.999 63.3491L113.165 64.1346C112.398 64.2229 111.703 64.1173 111.081 63.8178C110.464 63.5224 109.958 63.0669 109.562 62.4513C109.166 61.8357 108.918 61.0937 108.817 60.2253C108.717 59.357 108.789 58.5782 109.034 57.8889C109.278 57.1996 109.667 56.6413 110.2 56.2138C110.738 55.7857 111.391 55.5276 112.159 55.4393L118.992 54.6538L119.248 56.8646L112.598 57.629C112.198 57.675 111.85 57.8054 111.555 58.02C111.265 58.2341 111.049 58.511 110.907 58.8508C110.769 59.19 110.725 59.5732 110.775 60.0003C110.825 60.4322 110.955 60.7977 111.167 61.0968C111.383 61.3954 111.656 61.6137 111.987 61.7516C112.324 61.8937 112.692 61.9417 113.092 61.8957L119.742 61.1313Z" fill="white"/>
<path d="M114.417 73.91L114.485 71.9018C114.74 71.8736 114.968 71.755 115.169 71.546C115.375 71.3375 115.495 71.0427 115.531 70.6617C115.563 70.323 115.519 70.0318 115.4 69.788C115.279 69.5489 115.101 69.4182 114.865 69.3961C114.676 69.3784 114.506 69.436 114.356 69.569C114.209 69.7071 114.081 69.9537 113.971 70.3088L113.553 71.7146C113.324 72.4668 113.018 73.0146 112.633 73.3582C112.248 73.7017 111.769 73.8466 111.198 73.793C110.674 73.7438 110.23 73.5503 109.867 73.2125C109.508 72.8751 109.243 72.4325 109.071 71.8848C108.903 71.3376 108.852 70.7229 108.916 70.0408C109.015 68.9965 109.313 68.1844 109.811 67.6047C110.309 67.0297 110.938 66.7257 111.698 66.6927L111.609 68.8413C111.282 68.8817 111.023 69.0189 110.834 69.2527C110.646 69.4865 110.533 69.7986 110.496 70.189C110.46 70.5701 110.506 70.8853 110.635 71.1347C110.763 71.3888 110.943 71.5267 111.175 71.5484C111.567 71.5852 111.863 71.2713 112.064 70.6067L112.476 69.2715C112.704 68.5193 113.025 67.9728 113.438 67.632C113.852 67.2911 114.354 67.1484 114.944 67.2038C115.454 67.2516 115.88 67.4316 116.222 67.7437C116.564 68.0558 116.81 68.4705 116.961 68.9878C117.112 69.5097 117.156 70.107 117.092 70.7797C116.998 71.777 116.711 72.5403 116.232 73.0696C115.758 73.6041 115.153 73.8842 114.417 73.91Z" fill="white"/>
<path d="M110.997 82.3849L112.832 83.2038L112.357 81.2534L113.735 81.0127L113.936 83.0059L115.39 81.6217L116.294 82.7023L114.66 83.8767L116.589 84.4429L116.108 85.7393L114.271 84.9271L114.746 86.8775L113.356 87.1066L113.153 85.1201L111.702 86.4976L110.809 85.4286L112.442 84.2542L110.516 83.6814L110.997 82.3849Z" fill="white"/>
<path d="M99.9539 92.7025C100.521 91.9566 101.199 91.4163 101.989 91.0816C102.778 90.7468 103.627 90.6519 104.534 90.7968C105.441 90.9418 106.352 91.3593 107.267 92.0495C108.19 92.7455 108.844 93.5087 109.23 94.3392C109.617 95.1763 109.754 96.0175 109.641 96.8628C109.529 97.7147 109.192 98.5098 108.631 99.2481C108.259 99.7379 107.844 100.139 107.387 100.452C106.933 100.767 106.452 100.985 105.944 101.106C105.437 101.233 104.915 101.254 104.378 101.169C103.846 101.088 103.314 100.891 102.783 100.58L104.149 98.7827C104.405 98.9228 104.665 99.0119 104.927 99.0499C105.187 99.0917 105.443 99.0801 105.694 99.0151C105.943 98.9539 106.18 98.8453 106.406 98.6895C106.632 98.5403 106.838 98.3432 107.025 98.0984C107.351 97.6689 107.529 97.2076 107.559 96.7145C107.589 96.2279 107.467 95.7388 107.193 95.2471C106.919 94.762 106.487 94.297 105.897 93.8521C105.296 93.3986 104.721 93.1068 104.171 92.9767C103.625 92.8495 103.125 92.8695 102.671 93.0366C102.217 93.2037 101.828 93.5 101.505 93.9257C101.324 94.163 101.189 94.4077 101.099 94.6596C101.008 94.9115 100.964 95.1622 100.964 95.4116C100.965 95.6611 101.012 95.9042 101.106 96.1409C101.201 96.3842 101.347 96.6102 101.546 96.819L100.18 98.6159C99.825 98.2769 99.538 97.8797 99.3191 97.4241C99.0973 96.9724 98.9634 96.4832 98.9175 95.9566C98.8753 95.4329 98.9342 94.8936 99.0942 94.3386C99.2579 93.7865 99.5445 93.2412 99.9539 92.7025Z" fill="white"/>
<path d="M93.3674 99.5953C93.978 99.078 94.6179 98.7593 95.2871 98.6389C95.9557 98.5253 96.6093 98.5981 97.2476 98.8574C97.8854 99.1234 98.4685 99.566 98.9969 100.185C99.5314 100.812 99.8775 101.458 100.035 102.124C100.193 102.797 100.16 103.452 99.9363 104.087C99.7126 104.73 99.2954 105.309 98.6847 105.826C98.0705 106.347 97.4291 106.664 96.7604 106.777C96.0912 106.898 95.4377 106.825 94.7999 106.559C94.1615 106.3 93.5751 105.857 93.0406 105.23C92.5123 104.611 92.1694 103.965 92.0122 103.292C91.8544 102.626 91.8874 101.971 92.1111 101.329C92.3344 100.694 92.7531 100.116 93.3674 99.5953ZM94.4716 100.911C94.1934 101.147 94.0264 101.422 93.9706 101.736C93.9179 102.053 93.9613 102.388 94.1008 102.742C94.2367 103.098 94.4536 103.451 94.7516 103.8C95.0527 104.152 95.3671 104.423 95.6951 104.61C96.0194 104.8 96.3416 104.893 96.6615 104.889C96.9815 104.885 97.2806 104.765 97.5588 104.529C97.8406 104.29 98.0113 104.012 98.0707 103.695C98.1265 103.381 98.0879 103.048 97.9551 102.696C97.8187 102.346 97.5999 101.995 97.2989 101.642C97.0009 101.293 96.6882 101.021 96.3608 100.827C96.0298 100.636 95.7028 100.541 95.3797 100.542C95.0561 100.549 94.7534 100.672 94.4716 100.911Z" fill="white"/>
<path d="M89.6542 108.062L87.4121 104.066L89.3309 102.997L93.2112 109.914L91.3235 110.965L90.6328 109.734L90.5645 109.772C90.6362 110.268 90.5663 110.729 90.3546 111.156C90.1429 111.582 89.7783 111.939 89.2608 112.227C88.7806 112.495 88.3035 112.622 87.8295 112.61C87.3513 112.601 86.9041 112.457 86.4879 112.18C86.0717 111.903 85.7121 111.494 85.4089 110.954L82.9412 106.555L84.86 105.487L87.1368 109.545C87.3728 109.966 87.6676 110.235 88.0212 110.352C88.3772 110.473 88.7476 110.427 89.1326 110.212C89.3893 110.069 89.5846 109.885 89.7185 109.659C89.8547 109.437 89.9197 109.189 89.9135 108.917C89.9072 108.644 89.8208 108.359 89.6542 108.062Z" fill="white"/>
<path d="M80.4707 115.858L79.8954 114.302L84.3879 112.654L84.9632 114.21L80.4707 115.858ZM84.5959 116.354L82.5332 117.111L79.9763 110.194C79.8845 109.946 79.7609 109.782 79.6054 109.703C79.4515 109.629 79.2522 109.636 79.0074 109.726C78.9273 109.756 78.8408 109.795 78.7478 109.844C78.6548 109.893 78.576 109.94 78.5113 109.984L77.6138 108.561C77.8162 108.411 78.0185 108.281 78.2206 108.172C78.4183 108.064 78.6195 107.973 78.8242 107.898C79.5674 107.625 80.2095 107.598 80.7505 107.818C81.2932 108.042 81.6891 108.49 81.9382 109.164L84.5959 116.354Z" fill="white"/>
<path d="M74.3429 109.125C74.8357 109.026 75.297 109.023 75.7269 109.115C76.153 109.212 76.5123 109.41 76.8048 109.708C77.0973 110.006 77.2951 110.41 77.3982 110.919C77.4862 111.354 77.4803 111.732 77.3803 112.051C77.2813 112.374 77.1129 112.654 76.8752 112.889C76.6374 113.125 76.3536 113.324 76.0237 113.487C75.6937 113.65 75.3373 113.789 74.9543 113.904C74.5117 114.036 74.1576 114.151 73.8917 114.248C73.6258 114.345 73.4386 114.447 73.3299 114.556C73.2176 114.67 73.1778 114.808 73.2106 114.97L73.2176 115.005C73.2823 115.325 73.4347 115.552 73.6748 115.687C73.9104 115.823 74.2118 115.854 74.579 115.78C74.9649 115.702 75.2567 115.555 75.4545 115.337C75.6485 115.124 75.7565 114.881 75.7784 114.606L77.8121 114.364C77.8055 114.857 77.688 115.305 77.4598 115.707C77.2326 116.115 76.9029 116.458 76.4709 116.737C76.0351 117.023 75.5057 117.228 74.8827 117.353C74.4504 117.44 74.0263 117.472 73.6105 117.449C73.1948 117.427 72.8119 117.34 72.462 117.188C72.1083 117.042 71.8071 116.821 71.5583 116.524C71.3096 116.227 71.1388 115.849 71.046 115.39L69.9862 110.152L72.0433 109.739L72.2626 110.823L72.3184 110.811C72.3942 110.541 72.518 110.292 72.6898 110.064C72.8624 109.842 73.0844 109.648 73.3557 109.482C73.628 109.322 73.9571 109.203 74.3429 109.125ZM74.0231 110.737C73.707 110.8 73.4407 110.919 73.2242 111.092C73.0041 111.271 72.8482 111.481 72.7564 111.721C72.661 111.967 72.6405 112.224 72.6948 112.493L72.8621 113.319C72.9187 113.265 73.0038 113.207 73.1171 113.145C73.2259 113.085 73.3495 113.026 73.488 112.97C73.6265 112.913 73.7654 112.858 73.9049 112.806C74.0452 112.759 74.1717 112.714 74.2841 112.672C74.5323 112.584 74.7433 112.479 74.917 112.357C75.0917 112.24 75.2185 112.102 75.2973 111.941C75.3724 111.786 75.3893 111.607 75.3481 111.403C75.289 111.111 75.1371 110.91 74.8924 110.801C74.6476 110.691 74.3578 110.669 74.0231 110.737Z" fill="white"/>
<path d="M64.7699 110.214C65.5808 110.203 66.2803 110.366 66.8684 110.703C67.4565 111.044 67.9113 111.518 68.2328 112.123C68.5543 112.733 68.7207 113.439 68.7319 114.242C68.7433 115.055 68.5967 115.77 68.2923 116.389C67.9832 117.008 67.5394 117.493 66.9609 117.846C66.3825 118.199 65.6902 118.381 64.884 118.392C64.1917 118.402 63.5853 118.285 63.065 118.042C62.5398 117.799 62.1224 117.453 61.8126 117.003C61.5027 116.554 61.3293 116.022 61.2923 115.408L63.3693 115.38C63.4109 115.644 63.4948 115.874 63.6208 116.071C63.7469 116.268 63.9126 116.419 64.1181 116.525C64.3235 116.631 64.5613 116.682 64.8316 116.678C65.1731 116.673 65.4705 116.577 65.724 116.389C65.9728 116.206 66.1659 115.936 66.3032 115.58C66.4359 115.229 66.4987 114.802 66.4917 114.302C66.4847 113.801 66.41 113.372 66.2674 113.015C66.1202 112.658 65.9196 112.386 65.6656 112.201C65.4069 112.015 65.1068 111.925 64.7654 111.93C64.386 111.935 64.0676 112.058 63.8101 112.297C63.5526 112.542 63.396 112.875 63.3402 113.296L61.2632 113.325C61.288 112.72 61.4441 112.184 61.7317 111.717C62.0193 111.254 62.4197 110.89 62.933 110.623C63.4463 110.36 64.0586 110.224 64.7699 110.214Z" fill="white"/>
<path d="M54.7655 117.478L54.9939 115.835L59.7362 116.49L59.5077 118.133L54.7655 117.478ZM58.1699 119.851L55.9926 119.551L57.0079 112.249C57.0443 111.987 57.0126 111.785 56.9128 111.642C56.8122 111.505 56.6328 111.418 56.3744 111.382C56.2899 111.37 56.1949 111.364 56.0896 111.364C55.9843 111.364 55.8928 111.368 55.815 111.376L55.6963 109.7C55.9456 109.663 56.1853 109.644 56.4153 109.642C56.6407 109.64 56.8614 109.653 57.0775 109.683C57.862 109.791 58.441 110.069 58.8144 110.517C59.1872 110.969 59.3242 111.551 59.2253 112.262L58.1699 119.851Z" fill="white"/>
<path d="M40.3952 115.557L38.3418 114.663L41.0954 108.383C41.4048 107.677 41.8458 107.132 42.4183 106.746C42.9845 106.364 43.6342 106.157 44.3674 106.125C45.1006 106.094 45.8692 106.253 46.6732 106.603C47.4772 106.953 48.1167 107.406 48.5917 107.964C49.0666 108.521 49.3557 109.137 49.4587 109.811C49.5598 110.489 49.4557 111.181 49.1462 111.887L46.3926 118.167L44.3456 117.276L47.0253 111.165C47.1866 110.796 47.2483 110.431 47.2104 110.069C47.1705 109.712 47.0389 109.386 46.8155 109.093C46.5902 108.804 46.2799 108.574 45.8844 108.402C45.4846 108.228 45.1018 108.157 44.736 108.188C44.3683 108.224 44.0415 108.35 43.7554 108.566C43.463 108.784 43.2362 109.077 43.0748 109.445L40.3952 115.557Z" fill="white"/>
<path d="M32.0565 104.578L33.7637 105.648C33.6598 105.882 33.6479 106.137 33.7281 106.415C33.8055 106.697 34.0004 106.95 34.3127 107.173C34.5903 107.371 34.865 107.479 35.1368 107.499C35.4047 107.516 35.6077 107.428 35.7457 107.236C35.8562 107.082 35.8916 106.907 35.8522 106.71C35.8061 106.515 35.6567 106.28 35.404 106.007L34.3955 104.939C33.8581 104.364 33.5373 103.824 33.4332 103.32C33.329 102.815 33.444 102.331 33.778 101.866C34.0845 101.44 34.4757 101.155 34.9516 101.012C35.4248 100.873 35.9422 100.867 36.5038 100.995C37.0627 101.126 37.6217 101.391 38.1808 101.79C39.0368 102.401 39.5909 103.067 39.8431 103.787C40.0915 104.505 40.0386 105.199 39.6844 105.87L37.8656 104.712C37.9956 104.41 38.0066 104.118 37.8989 103.838C37.7912 103.558 37.5773 103.304 37.2573 103.075C36.9449 102.853 36.6482 102.734 36.367 102.719C36.082 102.702 35.8719 102.787 35.7366 102.976C35.5075 103.294 35.6305 103.708 36.1056 104.215L37.0563 105.242C37.5937 105.817 37.9062 106.368 37.9938 106.896C38.0814 107.423 37.9526 107.927 37.6075 108.407C37.3093 108.822 36.9388 109.098 36.4959 109.236C36.0531 109.373 35.5693 109.377 35.0446 109.246C34.5161 109.113 33.9761 108.85 33.4247 108.457C32.6072 107.874 32.0895 107.243 31.8714 106.564C31.6467 105.887 31.7084 105.225 32.0565 104.578Z" fill="white"/>
<path d="M26.4176 97.3725L24.7864 98.5437L26.7184 99.1121L26.2362 100.421L24.4043 99.5952L24.8775 101.542L23.486 101.779L23.2853 99.7824L21.8265 101.161L20.9417 100.097L22.5684 98.92L20.6364 98.3515L21.1341 97.039L22.9614 97.8594L22.4928 95.9179L23.8688 95.6843L24.0695 97.6813L25.5328 96.3082L26.4176 97.3725Z" fill="white"/>
<path d="M22.9803 82.6711C23.344 83.5337 23.4732 84.3892 23.368 85.2379C23.2628 86.0865 22.92 86.8654 22.3394 87.5747C21.7588 88.2841 20.9395 88.8601 19.8814 89.3029C18.8145 89.7494 17.8236 89.9308 16.9088 89.8473C15.9878 89.7612 15.1886 89.4576 14.5111 88.9365C13.8274 88.4129 13.3056 87.7242 12.9456 86.8704C12.7069 86.3041 12.5664 85.7453 12.5244 85.194C12.4779 84.6446 12.5297 84.1207 12.6797 83.6223C12.8234 83.1214 13.0665 82.661 13.409 82.2409C13.747 81.8227 14.1843 81.4629 14.7208 81.1615L15.5968 83.2395C15.3466 83.3903 15.1392 83.5694 14.9745 83.7766C14.808 83.9796 14.69 84.2058 14.6203 84.4553C14.5487 84.7005 14.5241 84.9594 14.5464 85.2319C14.5625 85.5019 14.6303 85.7785 14.7496 86.0616C14.959 86.5582 15.2704 86.943 15.6837 87.2159C16.0909 87.4862 16.5769 87.6262 17.1416 87.6359C17.7002 87.643 18.3205 87.5039 19.0026 87.2184C19.6978 86.9275 20.2396 86.5778 20.6281 86.1692C21.0121 85.7625 21.2454 85.3215 21.328 84.8462C21.4105 84.3709 21.348 83.8872 21.1405 83.3949C21.0248 83.1205 20.8802 82.8812 20.7067 82.677C20.5332 82.4729 20.3379 82.3086 20.1209 82.1842C19.9038 82.0598 19.669 81.9787 19.4165 81.9409C19.1577 81.9006 18.888 81.9135 18.6073 81.9797L17.7312 79.9018C18.2036 79.7656 18.6925 79.7173 19.1979 79.7569C19.7014 79.7922 20.1934 79.922 20.6737 80.1464C21.1497 80.3725 21.5886 80.6937 21.9903 81.1098C22.3877 81.5277 22.7177 82.0482 22.9803 82.6711Z" fill="white"/>
<path d="M20.3097 73.5374C20.4508 74.3234 20.405 75.0348 20.1724 75.6714C19.9343 76.3042 19.542 76.8301 18.9957 77.249C18.4439 77.664 17.7665 77.9431 16.9636 78.0861C16.1512 78.2308 15.4164 78.2033 14.7591 78.0036C14.0963 77.8001 13.5455 77.4422 13.1067 76.93C12.6624 76.414 12.3697 75.7629 12.2287 74.9769C12.0868 74.1862 12.1349 73.4744 12.373 72.8416C12.6056 72.205 12.9979 71.6791 13.5497 71.264C14.096 70.8451 14.7753 70.5633 15.5876 70.4186C16.3906 70.2756 17.1235 70.3058 17.7863 70.5094C18.4436 70.7091 18.9944 71.0669 19.4387 71.583C19.8775 72.0952 20.1678 72.7467 20.3097 73.5374ZM18.6126 73.8253C18.5483 73.4671 18.3941 73.185 18.15 72.9789C17.9011 72.7736 17.5885 72.6421 17.212 72.5844C16.8346 72.522 16.4196 72.5312 15.9667 72.6118C15.5092 72.6933 15.1167 72.8281 14.7891 73.016C14.4606 73.1993 14.2177 73.4298 14.0604 73.7074C13.9031 73.985 13.8565 74.3029 13.9208 74.661C13.9859 75.0238 14.1409 75.3106 14.3859 75.5214C14.6301 75.7275 14.9385 75.8621 15.3112 75.9253C15.683 75.9839 16.0977 75.9724 16.5552 75.8909C17.008 75.8103 17.401 75.6779 17.7341 75.4937C18.0663 75.305 18.3135 75.0713 18.4755 74.7929C18.632 74.5106 18.6777 74.1881 18.6126 73.8253Z" fill="white"/>
<path d="M14.8378 66.0374L19.4325 66.1193L19.3932 68.3089L11.4414 68.1673L11.48 66.0131L12.8954 66.0383L12.8968 65.9603C12.4306 65.7724 12.0659 65.48 11.8027 65.0831C11.5394 64.6862 11.4131 64.1925 11.4237 63.6019C11.4335 63.0539 11.563 62.5789 11.8121 62.177C12.0613 61.7703 12.4108 61.4575 12.8606 61.2387C13.3104 61.0199 13.8459 60.916 14.467 60.9271L19.5241 61.0171L19.4848 63.2068L14.8189 63.1237C14.3353 63.1151 13.9537 63.2335 13.6742 63.479C13.3899 63.7244 13.2439 64.0668 13.236 64.5061C13.2307 64.799 13.2924 65.06 13.4211 65.2892C13.5451 65.5182 13.7268 65.6987 13.9664 65.8305C14.2059 65.9624 14.4964 66.0314 14.8378 66.0374Z" fill="white"/>
<path d="M12.6895 54.2088L14.3292 54.4948L13.5036 59.1932L11.8639 58.9072L12.6895 54.2088ZM10.1877 57.5139L10.5668 55.3567L17.8542 56.6278C18.1158 56.6735 18.3199 56.6491 18.4664 56.5548C18.6084 56.4596 18.7018 56.284 18.7468 56.028C18.7615 55.9443 18.7708 55.85 18.7748 55.7451C18.7788 55.6403 18.778 55.549 18.7724 55.4713L20.4582 55.4128C20.4865 55.6623 20.4974 55.9017 20.4909 56.1308C20.4851 56.3552 20.4634 56.5745 20.4258 56.7886C20.2892 57.5658 19.9899 58.1324 19.5277 58.4883C19.0609 58.8434 18.4725 58.959 17.7624 58.8352L10.1877 57.5139Z" fill="white"/>
<path d="M21.6074 52.3242C21.4459 52.7985 21.2174 53.1978 20.9218 53.522C20.6232 53.8402 20.2711 54.0505 19.8657 54.153C19.4602 54.2555 19.0105 54.2233 18.5164 54.0564C18.0942 53.9137 17.7698 53.7193 17.5431 53.4731C17.312 53.2254 17.1538 52.9399 17.0685 52.6167C16.9832 52.2935 16.9527 51.949 16.9771 51.583C17.0015 51.2171 17.0597 50.8401 17.1517 50.4521C17.259 50.0044 17.3374 49.6417 17.3869 49.364C17.4363 49.0864 17.4412 48.8735 17.4014 48.7253C17.3587 48.5712 17.2588 48.4676 17.1016 48.4145L17.0679 48.4031C16.758 48.2984 16.4842 48.3157 16.2466 48.4549C16.0104 48.5896 15.8322 48.8338 15.7118 49.1873C15.5854 49.5587 15.5672 49.8843 15.6573 50.1642C15.7443 50.4381 15.9014 50.6533 16.1286 50.8099L15.3179 52.6839C14.8933 52.4306 14.5636 52.1047 14.3287 51.706C14.0893 51.3058 13.9567 50.8494 13.9309 50.3368C13.9021 49.8182 13.9898 49.259 14.1939 48.6594C14.3355 48.2433 14.5205 47.8617 14.7487 47.5148C14.977 47.1678 15.2447 46.8816 15.5518 46.656C15.856 46.4245 16.1994 46.2761 16.5822 46.2109C16.965 46.1456 17.3787 46.1881 17.8233 46.3383L22.9029 48.0545L22.229 50.0346L21.178 49.6795L21.1597 49.7332C21.3566 49.9344 21.5107 50.1661 21.6218 50.4281C21.7284 50.6887 21.7854 50.9774 21.7927 51.2942C21.7956 51.6094 21.7338 51.9528 21.6074 52.3242ZM20.369 51.2397C20.4726 50.9354 20.5033 50.6465 20.4613 50.3728C20.4162 50.0932 20.3125 49.8536 20.1501 49.654C19.9847 49.4484 19.7717 49.3017 19.5112 49.2137L18.7096 48.9428C18.7287 49.0191 18.7364 49.1215 18.7327 49.25C18.7306 49.374 18.7193 49.5099 18.6991 49.6577C18.6788 49.8055 18.6563 49.9526 18.6315 50.0989C18.6023 50.2437 18.5776 50.375 18.5575 50.493C18.5097 50.7512 18.4949 50.9857 18.5133 51.1965C18.5272 51.4058 18.5841 51.5846 18.6838 51.733C18.7805 51.8755 18.9277 51.9801 19.1253 52.0469C19.4082 52.1425 19.6589 52.1124 19.8771 51.9566C20.0954 51.8009 20.2594 51.5619 20.369 51.2397Z" fill="white"/>
<path d="M25.4712 43.5289C25.0727 44.2326 24.5794 44.7528 23.9912 45.0895C23.3989 45.4239 22.7595 45.5771 22.0729 45.5492C21.3821 45.519 20.6856 45.3065 19.9834 44.9118C19.273 44.5125 18.7262 44.0261 18.3431 43.4527C17.9622 42.8752 17.7644 42.2486 17.7495 41.5729C17.7346 40.8973 17.9252 40.2096 18.3214 39.5101C18.6616 38.9092 19.0682 38.4461 19.5411 38.1206C20.0163 37.7909 20.5268 37.6059 21.0724 37.5654C21.6181 37.5249 22.1664 37.6432 22.7173 37.9204L21.6967 39.7228C21.4467 39.6257 21.2047 39.5819 20.9706 39.5914C20.7366 39.6009 20.5219 39.6674 20.3267 39.791C20.1315 39.9145 19.9675 40.0936 19.8347 40.3281C19.6669 40.6244 19.6006 40.929 19.6359 41.2417C19.6693 41.5481 19.806 41.85 20.0459 42.1476C20.284 42.4388 20.6219 42.7074 21.0597 42.9535C21.4976 43.1996 21.9072 43.3512 22.2887 43.4083C22.6725 43.4613 23.0088 43.4252 23.2975 43.2999C23.5886 43.1706 23.818 42.9578 23.9858 42.6615C24.1722 42.3322 24.2263 41.9964 24.1479 41.654C24.0654 41.3093 23.8555 41.0068 23.5182 40.7467L24.5389 38.9442C25.0513 39.2702 25.4376 39.6745 25.6979 40.1572C25.9541 40.6376 26.0688 41.1659 26.0419 41.7421C26.011 42.316 25.8207 42.9117 25.4712 43.5289Z" fill="white"/>
<path d="M24.1802 31.3079L25.4898 32.3315L22.5348 36.0843L21.2251 35.0606L24.1802 31.3079ZM20.4081 33.0438L21.7649 31.3208L27.5857 35.8704C27.7946 36.0338 27.986 36.1083 28.16 36.0941C28.3302 36.077 28.4958 35.9662 28.6568 35.7618C28.7095 35.6949 28.7624 35.6161 28.8156 35.5256C28.8688 35.4351 28.9114 35.3542 28.9433 35.2831L30.4569 36.0248C30.3636 36.2581 30.2597 36.4742 30.1453 36.6731C30.0339 36.8682 29.9108 37.0513 29.7762 37.2223C29.2873 37.8431 28.7548 38.2016 28.1788 38.2978C27.599 38.3911 27.0255 38.2161 26.4583 37.7728L20.4081 33.0438Z" fill="white"/>
<path d="M33.0598 19.8917L34.8651 18.5692L38.9401 24.0908C39.3981 24.7112 39.6508 25.3648 39.6983 26.0513C39.7469 26.7312 39.6011 27.3952 39.2611 28.0431C38.921 28.691 38.3976 29.2739 37.6907 29.7917C36.9839 30.3095 36.2694 30.6335 35.5473 30.7637C34.8252 30.894 34.1456 30.8346 33.5087 30.5857C32.8689 30.333 32.3201 29.8964 31.8621 29.276L27.7871 23.7544L29.5867 22.4361L33.5522 27.8092C33.791 28.1327 34.0771 28.3688 34.4105 28.5175C34.7411 28.6624 35.0897 28.712 35.4563 28.6663C35.82 28.6168 36.1757 28.4647 36.5234 28.21C36.8749 27.9525 37.1286 27.6582 37.2845 27.327C37.4376 26.992 37.4921 26.6471 37.448 26.2923C37.405 25.9309 37.264 25.5884 37.0252 25.2648L33.0598 19.8917Z" fill="white"/>
<path d="M46.7684 18.2016L44.9838 19.1377C44.8327 18.931 44.6164 18.7925 44.3347 18.7223C44.0511 18.6479 43.7343 18.6895 43.3842 18.8471C43.0731 18.9873 42.841 19.1696 42.6878 19.3942C42.539 19.6168 42.5135 19.8357 42.6112 20.051C42.6893 20.2232 42.8237 20.3416 43.0143 20.4061C43.2073 20.4643 43.4858 20.453 43.8498 20.372L45.2829 20.0375C46.0517 19.8623 46.6813 19.8562 47.1716 20.019C47.6619 20.1819 48.0252 20.5238 48.2616 21.0448C48.4785 21.5226 48.5297 22.0026 48.4153 22.4845C48.299 22.9621 48.0447 23.4111 47.6525 23.8315C47.2584 24.2475 46.7481 24.5967 46.1215 24.8789C45.1622 25.3111 44.3064 25.4554 43.5543 25.312C42.8065 25.1666 42.2298 24.773 41.824 24.1313L43.7412 23.1432C43.9389 23.4068 44.1864 23.5623 44.4838 23.6099C44.7812 23.6574 45.1093 23.6004 45.4679 23.4388C45.818 23.2811 46.0698 23.0847 46.2233 22.8496C46.3812 22.6126 46.4122 22.3886 46.3165 22.1776C46.1543 21.8203 45.7338 21.7193 45.0549 21.8748L43.6866 22.18C42.9178 22.3552 42.2823 22.3485 41.7803 22.1598C41.2783 21.9711 40.9052 21.6076 40.661 21.0695C40.45 20.6045 40.3957 20.1467 40.4983 19.696C40.6009 19.2453 40.8402 18.8264 41.2162 18.4393C41.5965 18.0501 42.0956 17.7164 42.7136 17.438C43.6297 17.0254 44.4371 16.895 45.1358 17.047C45.8369 17.1927 46.3811 17.5775 46.7684 18.2016Z" fill="white"/>
<path d="M55.8641 16.9651L55.6698 14.9712L54.2041 16.3481L53.3118 15.274L54.9503 14.1129L53.0236 13.5399L53.5186 12.2226L55.3514 13.0554L54.8904 11.1055L56.259 10.8798L56.4603 12.8725L57.926 11.4956L58.8136 12.5848L57.1821 13.7448L59.1018 14.3189L58.6115 15.6211L56.7787 14.7883L57.2327 16.7393L55.8641 16.9651Z" fill="white"/>
</svg>
