<svg width="24" height="24" viewBox="0 0 24 24" fill="none" xmlns="http://www.w3.org/2000/svg">
<path d="M8.96575 3.85718L9.70289 1.95432C9.82721 1.63214 10.0459 1.35502 10.3304 1.15926C10.6149 0.963487 10.9519 0.858198 11.2972 0.857178H12.7029C13.0482 0.858198 13.3852 0.963487 13.6697 1.15926C13.9541 1.35502 14.1729 1.63214 14.2972 1.95432L15.0343 3.85718L17.5372 5.29718L19.56 4.98861C19.8969 4.94289 20.2397 4.99833 20.5449 5.1479C20.8502 5.29747 21.1041 5.53441 21.2743 5.82861L21.96 7.02861C22.1357 7.32749 22.2167 7.67263 22.1922 8.01847C22.1677 8.36431 22.039 8.6946 21.8229 8.96575L20.5715 10.56V13.44L21.8572 15.0343C22.0732 15.3055 22.202 15.6358 22.2265 15.9816C22.251 16.3274 22.17 16.6726 21.9943 16.9715L21.3086 18.1715C21.1383 18.4657 20.8845 18.7026 20.5792 18.8522C20.274 19.0017 19.9312 19.0572 19.5943 19.0115L17.5715 18.7029L15.0686 20.1429L14.3315 22.0457C14.2071 22.3679 13.9884 22.645 13.704 22.8408C13.4195 23.0366 13.0825 23.1419 12.7372 23.1429H11.2972C10.9519 23.1419 10.6149 23.0366 10.3304 22.8408C10.0459 22.645 9.82721 22.3679 9.70289 22.0457L8.96575 20.1429L6.46289 18.7029L4.44004 19.0115C4.10321 19.0572 3.76039 19.0017 3.45515 18.8522C3.14991 18.7026 2.89602 18.4657 2.72575 18.1715L2.04004 16.9715C1.86433 16.6726 1.78337 16.3274 1.80785 15.9816C1.83234 15.6358 1.96111 15.3055 2.17718 15.0343L3.42861 13.44V10.56L2.14289 8.96575C1.92683 8.6946 1.79805 8.36431 1.77357 8.01847C1.74908 7.67263 1.83004 7.32749 2.00575 7.02861L2.69147 5.82861C2.86173 5.53441 3.11562 5.29747 3.42086 5.1479C3.72611 4.99833 4.06892 4.94289 4.40575 4.98861L6.42861 5.29718L8.96575 3.85718ZM8.57147 12C8.57147 12.6781 8.77255 13.341 9.14928 13.9048C9.52602 14.4687 10.0615 14.9081 10.688 15.1676C11.3145 15.4271 12.0038 15.495 12.6689 15.3627C13.334 15.2304 13.9449 14.9039 14.4244 14.4244C14.9039 13.9449 15.2304 13.334 15.3627 12.6689C15.495 12.0038 15.4271 11.3145 15.1676 10.688C14.9081 10.0615 14.4687 9.52602 13.9048 9.14928C13.341 8.77255 12.6781 8.57146 12 8.57146C11.0907 8.57146 10.2187 8.93269 9.57567 9.57567C8.93269 10.2187 8.57147 11.0907 8.57147 12V12Z" stroke="white" stroke-width="1.5" stroke-linecap="round" stroke-linejoin="round"/>
</svg>
