<svg width="24" height="24" viewBox="0 0 24 24" fill="none" xmlns="http://www.w3.org/2000/svg">
<g clip-path="url(#clip0_344_617)">
<path d="M11.7772 16.286C16.0376 16.286 19.4914 12.8322 19.4914 8.57171C19.4914 4.31123 16.0376 0.857422 11.7772 0.857422C7.51667 0.857422 4.06287 4.31123 4.06287 8.57171C4.06287 12.8322 7.51667 16.286 11.7772 16.286Z" stroke="white" stroke-width="1.5" stroke-linecap="round" stroke-linejoin="round"/>
<path d="M11.7771 11.9997C13.6706 11.9997 15.2057 10.4647 15.2057 8.57115C15.2057 6.6776 13.6706 5.14258 11.7771 5.14258C9.88353 5.14258 8.34851 6.6776 8.34851 8.57115C8.34851 10.4647 9.88353 11.9997 11.7771 11.9997Z" stroke="white" stroke-width="1.5" stroke-linecap="round" stroke-linejoin="round"/>
<path d="M10.2857 16.1491L8.77712 22.492C8.74727 22.6125 8.69207 22.7253 8.61522 22.8229C8.53837 22.9204 8.44162 23.0005 8.33141 23.0577C8.21509 23.1082 8.08964 23.1342 7.96284 23.1342C7.83603 23.1342 7.71058 23.1082 7.59426 23.0577L1.90284 20.572C1.78345 20.5155 1.67841 20.4328 1.59558 20.33C1.51276 20.2271 1.4543 20.1068 1.42461 19.9782C1.39492 19.8495 1.39476 19.7158 1.42414 19.587C1.45352 19.4583 1.51169 19.3379 1.59426 19.2348L5.99998 13.7148" stroke="white" stroke-width="1.5" stroke-linecap="round" stroke-linejoin="round"/>
<path d="M13.7142 16.063L15.2571 22.4915C15.2878 22.6141 15.3452 22.7284 15.4252 22.8262C15.5052 22.924 15.6059 23.0029 15.7199 23.0572C15.8331 23.1084 15.9558 23.1348 16.0799 23.1348C16.2041 23.1348 16.3268 23.1084 16.4399 23.0572L22.0971 20.5715C22.2183 20.5158 22.3248 20.4325 22.4081 20.3283C22.4914 20.2242 22.5493 20.102 22.5771 19.9715C22.6096 19.8439 22.611 19.7104 22.5812 19.5821C22.5513 19.4538 22.4911 19.3346 22.4057 19.2344L17.8114 13.3887" stroke="white" stroke-width="1.5" stroke-linecap="round" stroke-linejoin="round"/>
</g>
<defs>
<clipPath id="clip0_344_617">
<rect width="24" height="24" fill="white"/>
</clipPath>
</defs>
</svg>
