<svg width="24" height="24" viewBox="0 0 24 24" fill="none" xmlns="http://www.w3.org/2000/svg">
<g clip-path="url(#clip0_723_656)">
<path d="M7.71426 22.2866C11.5014 22.2866 14.5714 19.2165 14.5714 15.4294C14.5714 11.6423 11.5014 8.57227 7.71426 8.57227C3.92716 8.57227 0.857117 11.6423 0.857117 15.4294C0.857117 19.2165 3.92716 22.2866 7.71426 22.2866Z" stroke="white" stroke-width="1.5" stroke-linecap="round" stroke-linejoin="round"/>
<path d="M16.2857 22.2866C20.0728 22.2866 23.1428 19.2165 23.1428 15.4294C23.1428 11.6423 20.0728 8.57227 16.2857 8.57227C12.4986 8.57227 9.42853 11.6423 9.42853 15.4294C9.42853 19.2165 12.4986 22.2866 16.2857 22.2866Z" stroke="white" stroke-width="1.5" stroke-linecap="round" stroke-linejoin="round"/>
<path d="M12 15.4291C15.7871 15.4291 18.8571 12.3591 18.8571 8.57199C18.8571 4.78489 15.7871 1.71484 12 1.71484C8.21287 1.71484 5.14282 4.78489 5.14282 8.57199C5.14282 12.3591 8.21287 15.4291 12 15.4291Z" stroke="white" stroke-width="1.5" stroke-linecap="round" stroke-linejoin="round"/>
</g>
<defs>
<clipPath id="clip0_723_656">
<rect width="24" height="24" fill="white"/>
</clipPath>
</defs>
</svg>
