<svg width="28" height="28" viewBox="0 0 28 28" fill="none" xmlns="http://www.w3.org/2000/svg">
<path d="M25 19.5V18.5C25 15.5826 23.8411 12.7847 21.7782 10.7218C19.7153 8.65893 16.9174 7.5 14 7.5C11.0826 7.5 8.28473 8.65893 6.22183 10.7218C4.15893 12.7847 3 15.5826 3 18.5V19.5" stroke="white" stroke-width="1.5" stroke-linecap="round" stroke-linejoin="round"/>
<path d="M27 19.5H1L1.64 21.64C1.88593 22.4671 2.39275 23.1926 3.08482 23.708C3.77688 24.2234 4.61708 24.5013 5.48 24.5H22.52C23.3829 24.5013 24.2231 24.2234 24.9152 23.708C25.6072 23.1926 26.1141 22.4671 26.36 21.64L27 19.5Z" stroke="white" stroke-width="1.5" stroke-linecap="round" stroke-linejoin="round"/>
<path d="M14 7.5V3.5" stroke="white" stroke-width="1.5" stroke-linecap="round" stroke-linejoin="round"/>
</svg>
