<svg width="24" height="24" viewBox="0 0 24 24" fill="none" xmlns="http://www.w3.org/2000/svg">
<g clip-path="url(#clip0_723_678)">
<path d="M23.1429 11.1431C23.1429 10.6885 22.9623 10.2524 22.6408 9.93095C22.3193 9.60946 21.8833 9.42885 21.4286 9.42885H14.5715V2.57171C14.5715 2.11705 14.3909 1.68102 14.0694 1.35952C13.7479 1.03803 13.3118 0.857422 12.8572 0.857422H11.1429C10.6882 0.857422 10.2522 1.03803 9.93071 1.35952C9.60922 1.68102 9.42861 2.11705 9.42861 2.57171V9.42885H2.57146C2.11681 9.42885 1.68077 9.60946 1.35928 9.93095C1.03779 10.2524 0.857178 10.6885 0.857178 11.1431V12.8574C0.857178 13.3121 1.03779 13.7481 1.35928 14.0696C1.68077 14.3911 2.11681 14.5717 2.57146 14.5717H9.42861V21.4289C9.42861 21.8835 9.60922 22.3195 9.93071 22.641C10.2522 22.9625 10.6882 23.1431 11.1429 23.1431H12.8572C13.3118 23.1431 13.7479 22.9625 14.0694 22.641C14.3909 22.3195 14.5715 21.8835 14.5715 21.4289V14.5717H21.4286C21.8833 14.5717 22.3193 14.3911 22.6408 14.0696C22.9623 13.7481 23.1429 13.3121 23.1429 12.8574V11.1431Z" stroke="white" stroke-width="1.5" stroke-linecap="round" stroke-linejoin="round"/>
</g>
<defs>
<clipPath id="clip0_723_678">
<rect width="24" height="24" fill="white"/>
</clipPath>
</defs>
</svg>
