<svg width="24" height="24" viewBox="0 0 24 24" fill="none" xmlns="http://www.w3.org/2000/svg">
<g clip-path="url(#clip0_723_697)">
<path d="M12.8058 11.8287C12.5515 11.9391 12.2773 11.9961 12.0001 11.9961C11.7229 11.9961 11.4486 11.9391 11.1944 11.8287L1.42294 7.303C1.26427 7.22297 1.13092 7.10046 1.03776 6.94913C0.944593 6.79779 0.895264 6.62357 0.895264 6.44586C0.895264 6.26814 0.944593 6.09392 1.03776 5.94258C1.13092 5.79125 1.26427 5.66874 1.42294 5.58871L11.1944 1.02871C11.4486 0.918302 11.7229 0.861328 12.0001 0.861328C12.2773 0.861328 12.5515 0.918302 12.8058 1.02871L22.5772 5.55443C22.7359 5.63446 22.8692 5.75696 22.9624 5.9083C23.0556 6.05963 23.1049 6.23386 23.1049 6.41157C23.1049 6.58928 23.0556 6.76351 22.9624 6.91484C22.8692 7.06618 22.7359 7.18868 22.5772 7.26871L12.8058 11.8287Z" stroke="white" stroke-width="1.5" stroke-linecap="round" stroke-linejoin="round"/>
<path d="M23.1429 12.5996L12.6857 17.4168C12.4624 17.5186 12.2198 17.5713 11.9743 17.5713C11.7288 17.5713 11.4862 17.5186 11.2629 17.4168L0.857178 12.5996" stroke="white" stroke-width="1.5" stroke-linecap="round" stroke-linejoin="round"/>
<path d="M23.1429 18.1719L12.6857 22.989C12.4624 23.0909 12.2198 23.1436 11.9743 23.1436C11.7288 23.1436 11.4862 23.0909 11.2629 22.989L0.857178 18.1719" stroke="white" stroke-width="1.5" stroke-linecap="round" stroke-linejoin="round"/>
</g>
<defs>
<clipPath id="clip0_723_697">
<rect width="24" height="24" fill="white"/>
</clipPath>
</defs>
</svg>
