<svg width="24" height="24" viewBox="0 0 24 24" fill="none" xmlns="http://www.w3.org/2000/svg">
<g clip-path="url(#clip0_337_8795)">
<path d="M10.2856 1.80007C10.4676 1.50961 10.7203 1.27015 11.0202 1.10416C11.32 0.938159 11.6572 0.851074 11.9999 0.851074C12.3426 0.851074 12.6798 0.938159 12.9796 1.10416C13.2795 1.27015 13.5322 1.50961 13.7142 1.80007L17.0399 7.06293L21.377 7.59436C21.7367 7.63454 22.0787 7.77214 22.3659 7.99232C22.6532 8.2125 22.8749 8.50691 23.0072 8.84381C23.1395 9.18071 23.1773 9.54732 23.1166 9.90414C23.0559 10.261 22.899 10.5944 22.6628 10.8686L19.0456 15.0172L20.2113 20.7601C20.2844 21.1348 20.249 21.5226 20.1093 21.8778C19.9696 22.2331 19.7314 22.5412 19.4228 22.7658C19.1102 22.9863 18.7419 23.1145 18.36 23.1357C17.978 23.1569 17.5978 23.0703 17.2628 22.8858L11.9999 20.0058L6.73704 22.8858C6.40196 23.0703 6.02176 23.1569 5.63982 23.1357C5.25789 23.1145 4.88961 22.9863 4.57704 22.7658C4.26834 22.5412 4.03016 22.2331 3.89047 21.8778C3.75079 21.5226 3.7154 21.1348 3.78847 20.7601L4.95418 15.0172L1.33704 10.8686C1.10079 10.5944 0.94385 10.261 0.883147 9.90414C0.822445 9.54732 0.860278 9.18071 0.992569 8.84381C1.12486 8.50691 1.34659 8.2125 1.63386 7.99232C1.92113 7.77214 2.26305 7.63454 2.62275 7.59436L6.9599 7.06293L10.2856 1.80007Z" stroke="white" stroke-width="1.5" stroke-linecap="round" stroke-linejoin="round"/>
<path d="M9.42847 9.46289H12.857C13.3117 9.46289 13.7477 9.6435 14.0692 9.96499C14.3907 10.2865 14.5713 10.7225 14.5713 11.1772V14.6057C14.5713 15.0604 14.3907 15.4964 14.0692 15.8179C13.7477 16.1394 13.3117 16.32 12.857 16.32H9.42847" stroke="white" stroke-width="1.5" stroke-linecap="round" stroke-linejoin="round"/>
<path d="M14.5713 12.8916H9.42847" stroke="white" stroke-width="1.5" stroke-linecap="round" stroke-linejoin="round"/>
</g>
<defs>
<clipPath id="clip0_337_8795">
<rect width="24" height="24" fill="white"/>
</clipPath>
</defs>
</svg>
