<svg width="20" height="20" viewBox="0 0 20 20" fill="none" xmlns="http://www.w3.org/2000/svg">
<g clip-path="url(#clip0_294_55)">
<path d="M19.2857 9.28627C19.2857 8.90739 19.1352 8.54403 18.8672 8.27612C18.5993 8.00821 18.236 7.8577 17.8571 7.8577H12.1428V2.14342C12.1428 1.76453 11.9923 1.40117 11.7244 1.13326C11.4565 0.865354 11.0931 0.714844 10.7142 0.714844H9.28566C8.90678 0.714844 8.54342 0.865354 8.27551 1.13326C8.0076 1.40117 7.85709 1.76453 7.85709 2.14342V7.8577H2.1428C1.76392 7.8577 1.40056 8.00821 1.13265 8.27612C0.864743 8.54403 0.714233 8.90739 0.714233 9.28627V10.7148C0.714233 11.0937 0.864743 11.4571 1.13265 11.725C1.40056 11.9929 1.76392 12.1434 2.1428 12.1434H7.85709V17.8577C7.85709 18.2366 8.0076 18.5999 8.27551 18.8679C8.54342 19.1358 8.90678 19.2863 9.28566 19.2863H10.7142C11.0931 19.2863 11.4565 19.1358 11.7244 18.8679C11.9923 18.5999 12.1428 18.2366 12.1428 17.8577V12.1434H17.8571C18.236 12.1434 18.5993 11.9929 18.8672 11.725C19.1352 11.4571 19.2857 11.0937 19.2857 10.7148V9.28627Z" stroke="white" stroke-width="1.5" stroke-linecap="round" stroke-linejoin="round"/>
</g>
<defs>
<clipPath id="clip0_294_55">
<rect width="20" height="20" fill="white"/>
</clipPath>
</defs>
</svg>
