<svg width="24" height="24" viewBox="0 0 24 24" fill="none" xmlns="http://www.w3.org/2000/svg">
<path d="M12 22.9543C13.1256 22.9543 14.2402 22.7326 15.2801 22.3018C16.3201 21.8711 17.265 21.2397 18.0609 20.4438C18.8568 19.6478 19.4882 18.7029 19.919 17.663C20.3497 16.6231 20.5714 15.5085 20.5714 14.3829V9.61714C20.5715 7.51146 19.7966 5.47941 18.3943 3.90857" stroke="white" stroke-width="1.5" stroke-linecap="round" stroke-linejoin="round"/>
<path d="M3.42859 11.5199V14.3828C3.42801 16.0701 3.92548 17.7201 4.85864 19.1259C5.7918 20.5318 7.11914 21.6309 8.6743 22.2856" stroke="white" stroke-width="1.5" stroke-linecap="round" stroke-linejoin="round"/>
<path d="M16.2857 2.19423C14.317 1.05764 11.9775 0.749632 9.7817 1.33796C7.58593 1.92628 5.7138 3.36275 4.57712 5.33138C4.10908 6.13971 3.77885 7.02032 3.59998 7.93709" stroke="white" stroke-width="1.5" stroke-linecap="round" stroke-linejoin="round"/>
<path d="M11.1086 6.01708C11.7392 5.88618 12.391 5.89847 13.0161 6.05305C13.6413 6.20762 14.2237 6.50053 14.7206 6.91018C15.2174 7.31984 15.616 7.83579 15.8869 8.41999C16.1578 9.00419 16.2941 9.64175 16.2858 10.2856V13.0456" stroke="white" stroke-width="1.5" stroke-linecap="round" stroke-linejoin="round"/>
<path d="M15.1886 16.6457C14.6053 17.2954 13.8375 17.7515 12.9879 17.9529C12.1383 18.1542 11.2475 18.0913 10.4346 17.7725C9.6218 17.4537 8.92572 16.8942 8.43956 16.169C7.9534 15.4437 7.70035 14.5873 7.71429 13.7143V10.2857C7.71103 9.69692 7.82769 9.11364 8.05715 8.57141" stroke="white" stroke-width="1.5" stroke-linecap="round" stroke-linejoin="round"/>
<path d="M12 10.4742V13.3371" stroke="white" stroke-width="1.5" stroke-linecap="round" stroke-linejoin="round"/>
</svg>
