<svg width="24" height="24" viewBox="0 0 24 24" fill="none" xmlns="http://www.w3.org/2000/svg">
<g clip-path="url(#clip0_371_985)">
<path d="M14.5717 8.57139C15.5185 8.57139 16.286 7.80388 16.286 6.85711C16.286 5.91033 15.5185 5.14282 14.5717 5.14282C13.6249 5.14282 12.8574 5.91033 12.8574 6.85711C12.8574 7.80388 13.6249 8.57139 14.5717 8.57139Z" stroke="white" stroke-width="1.5" stroke-linecap="round" stroke-linejoin="round"/>
<path d="M7.71456 17.143C8.18795 17.143 8.57171 16.7592 8.57171 16.2859C8.57171 15.8125 8.18795 15.4287 7.71456 15.4287C7.24118 15.4287 6.85742 15.8125 6.85742 16.2859C6.85742 16.7592 7.24118 17.143 7.71456 17.143Z" stroke="white" stroke-width="1.5" stroke-linecap="round" stroke-linejoin="round"/>
<path d="M7.71429 11.1429C8.66106 11.1429 9.42857 10.3754 9.42857 9.42864C9.42857 8.48187 8.66106 7.71436 7.71429 7.71436C6.76751 7.71436 6 8.48187 6 9.42864C6 10.3754 6.76751 11.1429 7.71429 11.1429Z" stroke="white" stroke-width="1.5" stroke-linecap="round" stroke-linejoin="round"/>
<path d="M16.3209 21.0515C16.3018 20.7189 16.1863 20.3992 15.9884 20.1313C15.7905 19.8634 15.5189 19.6589 15.2066 19.5429C14.4313 19.2881 13.7723 18.765 13.3481 18.0677C12.9239 17.3704 12.7623 16.5447 12.8925 15.739C13.0226 14.9333 13.436 14.2004 14.0581 13.6721C14.6803 13.1439 15.4705 12.8549 16.2866 12.8572H19.4924C20.0422 12.8587 20.5843 12.728 21.073 12.476C21.5617 12.2241 21.9827 11.8583 22.3003 11.4095C22.618 10.9608 22.8231 10.4422 22.8983 9.89751C22.9735 9.35285 22.9166 8.79809 22.7324 8.28004C22.0505 6.35484 20.8527 4.65407 19.2697 3.36355C17.6867 2.07302 15.7795 1.24239 13.7564 0.962391C11.7333 0.682397 9.67218 0.963815 7.7982 1.7759C5.92422 2.58798 4.30948 3.89949 3.13039 5.56714C1.9513 7.23479 1.25323 9.19442 1.11245 11.2319C0.97166 13.2694 1.39357 15.3065 2.33209 17.1204C3.27061 18.9344 4.68962 20.4555 6.4341 21.5176C8.17858 22.5798 10.1814 23.142 12.2238 23.1429C13.2324 23.1457 14.2365 23.0072 15.2066 22.7315C15.563 22.6316 15.8716 22.407 16.0761 22.0986C16.2807 21.7902 16.3676 21.4186 16.3209 21.0515V21.0515Z" stroke="white" stroke-width="1.5" stroke-linecap="round" stroke-linejoin="round"/>
</g>
<defs>
<clipPath id="clip0_371_985">
<rect width="24" height="24" fill="white"/>
</clipPath>
</defs>
</svg>
