<svg width="24" height="24" viewBox="0 0 24 24" fill="none" xmlns="http://www.w3.org/2000/svg">
<g clip-path="url(#clip0_262_17604)">
<path d="M7.71426 22.2858C11.5014 22.2858 14.5714 19.2158 14.5714 15.4287C14.5714 11.6416 11.5014 8.57153 7.71426 8.57153C3.92716 8.57153 0.857117 11.6416 0.857117 15.4287C0.857117 19.2158 3.92716 22.2858 7.71426 22.2858Z" stroke="white" stroke-width="1.5" stroke-linecap="round" stroke-linejoin="round"/>
<path d="M16.2857 22.2858C20.0728 22.2858 23.1428 19.2158 23.1428 15.4287C23.1428 11.6416 20.0728 8.57153 16.2857 8.57153C12.4986 8.57153 9.42853 11.6416 9.42853 15.4287C9.42853 19.2158 12.4986 22.2858 16.2857 22.2858Z" stroke="white" stroke-width="1.5" stroke-linecap="round" stroke-linejoin="round"/>
<path d="M12 15.4286C15.7871 15.4286 18.8571 12.3586 18.8571 8.5715C18.8571 4.7844 15.7871 1.71436 12 1.71436C8.21287 1.71436 5.14282 4.7844 5.14282 8.5715C5.14282 12.3586 8.21287 15.4286 12 15.4286Z" stroke="white" stroke-width="1.5" stroke-linecap="round" stroke-linejoin="round"/>
</g>
<defs>
<clipPath id="clip0_262_17604">
<rect width="24" height="24" fill="white"/>
</clipPath>
</defs>
</svg>
