<svg width="24" height="24" viewBox="0 0 24 24" fill="none" xmlns="http://www.w3.org/2000/svg">
<g clip-path="url(#clip0_232_35)">
<path d="M12.0001 16.2863C14.367 16.2863 16.2858 14.3675 16.2858 12.0006C16.2858 9.63362 14.367 7.71484 12.0001 7.71484C9.63313 7.71484 7.71436 9.63362 7.71436 12.0006C7.71436 14.3675 9.63313 16.2863 12.0001 16.2863Z" stroke="white" stroke-width="1.5" stroke-linecap="round" stroke-linejoin="round"/>
<path d="M23.1429 12.0003L19.1315 14.9489L19.8858 19.886L14.9486 19.1317L12 23.1431L9.05146 19.1317L4.11432 19.886L4.86861 14.9489L0.857178 12.0003L4.86861 9.05171L4.11432 4.11456L9.05146 4.86885L12 0.857422L14.9486 4.86885L19.8858 4.11456L19.1315 9.05171L23.1429 12.0003Z" stroke="white" stroke-width="1.5" stroke-linecap="round" stroke-linejoin="round"/>
</g>
<defs>
<clipPath id="clip0_232_35">
<rect width="24" height="24" fill="white"/>
</clipPath>
</defs>
</svg>
