<svg width="24" height="24" viewBox="0 0 24 24" fill="none" xmlns="http://www.w3.org/2000/svg">
<g clip-path="url(#clip0_262_9456)">
<path d="M14.5715 8.57139C15.5182 8.57139 16.2857 7.80388 16.2857 6.85711C16.2857 5.91033 15.5182 5.14282 14.5715 5.14282C13.6247 5.14282 12.8572 5.91033 12.8572 6.85711C12.8572 7.80388 13.6247 8.57139 14.5715 8.57139Z" stroke="white" stroke-width="1.5" stroke-linecap="round" stroke-linejoin="round"/>
<path d="M7.71432 17.143C8.18771 17.143 8.57146 16.7592 8.57146 16.2859C8.57146 15.8125 8.18771 15.4287 7.71432 15.4287C7.24093 15.4287 6.85718 15.8125 6.85718 16.2859C6.85718 16.7592 7.24093 17.143 7.71432 17.143Z" stroke="white" stroke-width="1.5" stroke-linecap="round" stroke-linejoin="round"/>
<path d="M7.71429 11.1429C8.66106 11.1429 9.42857 10.3754 9.42857 9.42864C9.42857 8.48187 8.66106 7.71436 7.71429 7.71436C6.76751 7.71436 6 8.48187 6 9.42864C6 10.3754 6.76751 11.1429 7.71429 11.1429Z" stroke="white" stroke-width="1.5" stroke-linecap="round" stroke-linejoin="round"/>
<path d="M16.32 21.0515C16.3009 20.7189 16.1854 20.3992 15.9875 20.1313C15.7896 19.8634 15.5179 19.6589 15.2057 19.5429C14.4304 19.2881 13.7713 18.765 13.3472 18.0677C12.923 17.3704 12.7614 16.5447 12.8916 15.739C13.0217 14.9333 13.435 14.2004 14.0572 13.6721C14.6794 13.1439 15.4696 12.8549 16.2857 12.8572H19.4914C20.0413 12.8587 20.5834 12.728 21.0721 12.476C21.5608 12.2241 21.9817 11.8583 22.2994 11.4095C22.6171 10.9608 22.8222 10.4422 22.8973 9.89751C22.9725 9.35285 22.9156 8.79809 22.7314 8.28004C22.0496 6.35484 20.8518 4.65407 19.2688 3.36355C17.6858 2.07302 15.7786 1.24239 13.7555 0.962391C11.7324 0.682397 9.67127 0.963815 7.79728 1.7759C5.9233 2.58798 4.30856 3.89949 3.12947 5.56714C1.95039 7.23479 1.25232 9.19442 1.11153 11.2319C0.970745 13.2694 1.39266 15.3065 2.33117 17.1204C3.26969 18.9344 4.6887 20.4555 6.43319 21.5176C8.17767 22.5798 10.1805 23.142 12.2229 23.1429C13.2315 23.1457 14.2355 23.0072 15.2057 22.7315C15.5621 22.6316 15.8707 22.407 16.0752 22.0986C16.2798 21.7902 16.3666 21.4186 16.32 21.0515V21.0515Z" stroke="white" stroke-width="1.5" stroke-linecap="round" stroke-linejoin="round"/>
</g>
<defs>
<clipPath id="clip0_262_9456">
<rect width="24" height="24" fill="white"/>
</clipPath>
</defs>
</svg>
