<svg width="24" height="24" viewBox="0 0 24 24" fill="none" xmlns="http://www.w3.org/2000/svg">
<path d="M19.7137 8.57146C19.7137 12.84 11.9994 23.1429 11.9994 23.1429C11.9994 23.1429 4.28516 12.84 4.28516 8.57146C4.28516 6.52551 5.09791 4.56335 6.54462 3.11664C7.99133 1.66993 9.95349 0.857178 11.9994 0.857178C14.0454 0.857178 16.0076 1.66993 17.4543 3.11664C18.901 4.56335 19.7137 6.52551 19.7137 8.57146V8.57146Z" stroke="white" stroke-width="1.5" stroke-linecap="round" stroke-linejoin="round"/>
<path d="M12.0011 11.1429C13.4213 11.1429 14.5725 9.99159 14.5725 8.57143C14.5725 7.15127 13.4213 6 12.0011 6C10.581 6 9.42969 7.15127 9.42969 8.57143C9.42969 9.99159 10.581 11.1429 12.0011 11.1429Z" stroke="white" stroke-width="1.5" stroke-linecap="round" stroke-linejoin="round"/>
</svg>
