<svg width="24" height="24" viewBox="0 0 24 24" fill="none" xmlns="http://www.w3.org/2000/svg">
<g clip-path="url(#clip0_347_17446)">
<path d="M11.9996 21.4628C17.6802 21.4628 22.2853 16.8577 22.2853 11.1771C22.2853 5.49643 17.6802 0.891357 11.9996 0.891357C6.31894 0.891357 1.71387 5.49643 1.71387 11.1771C1.71387 16.8577 6.31894 21.4628 11.9996 21.4628Z" stroke="white" stroke-width="1.5" stroke-linecap="round" stroke-linejoin="round"/>
<path d="M17.2627 20.0227C18.8796 20.7434 20.3278 21.7945 21.5141 23.1084" stroke="white" stroke-width="1.5" stroke-linecap="round" stroke-linejoin="round"/>
<path d="M2.48535 23.1084C3.67167 21.7945 5.11986 20.7434 6.73678 20.0227" stroke="white" stroke-width="1.5" stroke-linecap="round" stroke-linejoin="round"/>
<path d="M11.9993 16.3199C14.8396 16.3199 17.1422 14.0174 17.1422 11.177C17.1422 8.33672 14.8396 6.03418 11.9993 6.03418C9.15898 6.03418 6.85645 8.33672 6.85645 11.177C6.85645 14.0174 9.15898 16.3199 11.9993 16.3199Z" stroke="white" stroke-width="1.5" stroke-linecap="round" stroke-linejoin="round"/>
<path d="M11.9997 12.0341C12.4731 12.0341 12.8569 11.6504 12.8569 11.177C12.8569 10.7036 12.4731 10.3198 11.9997 10.3198C11.5263 10.3198 11.1426 10.7036 11.1426 11.177C11.1426 11.6504 11.5263 12.0341 11.9997 12.0341Z" stroke="white" stroke-width="1.5" stroke-linecap="round" stroke-linejoin="round"/>
</g>
<defs>
<clipPath id="clip0_347_17446">
<rect width="24" height="24" fill="white"/>
</clipPath>
</defs>
</svg>
