<svg width="28" height="28" viewBox="0 0 28 28" fill="none" xmlns="http://www.w3.org/2000/svg">
<path d="M14 20.04V22.06" stroke="white" stroke-width="1.5" stroke-linecap="round" stroke-linejoin="round"/>
<path d="M14 10.0205V11.9005" stroke="white" stroke-width="1.5" stroke-linecap="round" stroke-linejoin="round"/>
<path d="M14 26.9804C21 26.9804 26 24.5004 26 18.9804C26 12.9804 23 8.98043 17 5.98043L19.36 2.94043C19.4799 2.74097 19.5449 2.51336 19.5485 2.28067C19.5521 2.04798 19.4941 1.81847 19.3804 1.61542C19.2667 1.41238 19.1013 1.243 18.901 1.12446C18.7008 1.00592 18.4727 0.942429 18.24 0.94043H9.76C9.52729 0.942429 9.29924 1.00592 9.09898 1.12446C8.89871 1.243 8.73334 1.41238 8.61963 1.61542C8.50593 1.81847 8.44792 2.04798 8.4515 2.28067C8.45507 2.51336 8.52011 2.74097 8.64 2.94043L11 6.00043C5 9.02043 2 13.0204 2 19.0204C2 24.5004 7 26.9804 14 26.9804Z" stroke="white" stroke-width="1.5" stroke-linecap="round" stroke-linejoin="round"/>
<path d="M12 19.1207C12.244 19.4104 12.5512 19.6403 12.8979 19.7928C13.2445 19.9454 13.6216 20.0165 14 20.0007C14.5784 20.0401 15.1496 19.8537 15.5934 19.4808C16.0373 19.1078 16.3192 18.5772 16.38 18.0007C16.3192 17.4241 16.0373 16.8936 15.5934 16.5206C15.1496 16.1476 14.5784 15.9613 14 16.0007C13.4216 16.0401 12.8504 15.8537 12.4066 15.4808C11.9627 15.1078 11.6808 14.5772 11.62 14.0007C11.6759 13.4221 11.9565 12.8885 12.4015 12.5146C12.8465 12.1406 13.4204 11.9561 14 12.0007C14.3718 11.9779 14.744 12.0379 15.0898 12.1762C15.4356 12.3146 15.7465 12.5278 16 12.8007" stroke="white" stroke-width="1.5" stroke-linecap="round" stroke-linejoin="round"/>
</svg>
