<svg width="20" height="20" viewBox="0 0 20 20" fill="none" xmlns="http://www.w3.org/2000/svg">
<g clip-path="url(#clip0_262_9484)">
<path d="M15.7143 7.85645H4.28575C3.49677 7.85645 2.85718 8.49604 2.85718 9.28502V17.8564C2.85718 18.6454 3.49677 19.285 4.28575 19.285H15.7143C16.5033 19.285 17.1429 18.6454 17.1429 17.8564V9.28502C17.1429 8.49604 16.5033 7.85645 15.7143 7.85645Z" stroke="white" stroke-width="1.5" stroke-linecap="round" stroke-linejoin="round"/>
<path d="M15 7.85672V5.71387C15 4.38778 14.4732 3.11602 13.5355 2.17833C12.5979 1.24065 11.3261 0.713867 10 0.713867C8.67392 0.713867 7.40215 1.24065 6.46447 2.17833C5.52678 3.11602 5 4.38778 5 5.71387V7.85672" stroke="white" stroke-width="1.5" stroke-linecap="round" stroke-linejoin="round"/>
<path d="M10.0001 14.285C10.3945 14.285 10.7143 13.9652 10.7143 13.5707C10.7143 13.1762 10.3945 12.8564 10.0001 12.8564C9.60556 12.8564 9.28577 13.1762 9.28577 13.5707C9.28577 13.9652 9.60556 14.285 10.0001 14.285Z" stroke="white" stroke-width="1.5" stroke-linecap="round" stroke-linejoin="round"/>
</g>
<defs>
<clipPath id="clip0_262_9484">
<rect width="20" height="20" fill="white"/>
</clipPath>
</defs>
</svg>
