<svg width="24" height="24" viewBox="0 0 24 24" fill="none" xmlns="http://www.w3.org/2000/svg">
<g clip-path="url(#clip0_232_3)">
<path d="M23.1429 18V21.4286C23.1429 21.8832 22.9622 22.3193 22.6408 22.6408C22.3193 22.9622 21.8832 23.1429 21.4286 23.1429H18" stroke="white" stroke-width="1.5" stroke-linecap="round" stroke-linejoin="round"/>
<path d="M18 0.857422H21.4286C21.8832 0.857422 22.3193 1.03803 22.6408 1.35952C22.9622 1.68102 23.1429 2.11705 23.1429 2.57171V6.00028" stroke="white" stroke-width="1.5" stroke-linecap="round" stroke-linejoin="round"/>
<path d="M0.857178 6.00028V2.57171C0.857178 2.11705 1.03779 1.68102 1.35928 1.35952C1.68077 1.03803 2.11681 0.857422 2.57146 0.857422H6.00003" stroke="white" stroke-width="1.5" stroke-linecap="round" stroke-linejoin="round"/>
<path d="M6.00003 23.1429H2.57146C2.11681 23.1429 1.68077 22.9622 1.35928 22.6408C1.03779 22.3193 0.857178 21.8832 0.857178 21.4286V18" stroke="white" stroke-width="1.5" stroke-linecap="round" stroke-linejoin="round"/>
<path d="M19.7143 12.0003C19.7143 12.0003 16.2858 17.1431 12.0001 17.1431C7.71434 17.1431 4.28577 12.0003 4.28577 12.0003C4.28577 12.0003 7.71434 6.85742 12.0001 6.85742C16.2858 6.85742 19.7143 12.0003 19.7143 12.0003Z" stroke="white" stroke-width="1.5" stroke-linecap="round" stroke-linejoin="round"/>
<path d="M12.0001 12.8569C12.4735 12.8569 12.8572 12.4731 12.8572 11.9997C12.8572 11.5263 12.4735 11.1426 12.0001 11.1426C11.5267 11.1426 11.1429 11.5263 11.1429 11.9997C11.1429 12.4731 11.5267 12.8569 12.0001 12.8569Z" stroke="white" stroke-width="1.5" stroke-linecap="round" stroke-linejoin="round"/>
</g>
<defs>
<clipPath id="clip0_232_3">
<rect width="24" height="24" fill="white"/>
</clipPath>
</defs>
</svg>
