<svg width="24" height="24" viewBox="0 0 24 24" fill="none" xmlns="http://www.w3.org/2000/svg">
<g clip-path="url(#clip0_723_335)">
<path d="M21.6686 3.20597L20.2286 7.45739C20.1789 7.55572 20.153 7.66436 20.153 7.77454C20.153 7.88472 20.1789 7.99335 20.2286 8.09168L22.92 11.6917C22.9974 11.7947 23.0441 11.9175 23.0549 12.0459C23.0657 12.1742 23.0401 12.3031 22.9811 12.4176C22.922 12.5321 22.8319 12.6277 22.7211 12.6933C22.6102 12.759 22.4831 12.7921 22.3543 12.7888H17.8629C17.7528 12.7921 17.6448 12.8199 17.5469 12.8703C17.449 12.9208 17.3637 12.9925 17.2972 13.0803L14.7943 16.6803C14.7209 16.7855 14.6194 16.868 14.5014 16.9184C14.3835 16.9689 14.2537 16.9852 14.1269 16.9656C14.0001 16.9459 13.8814 16.8911 13.7842 16.8073C13.687 16.7236 13.6153 16.6142 13.5772 16.4917L12.24 12.206C12.2095 12.1 12.1526 12.0036 12.0746 11.9256C11.9967 11.8477 11.9002 11.7908 11.7943 11.7603L7.50858 10.4231C7.38607 10.385 7.27671 10.3133 7.19294 10.2161C7.10916 10.1189 7.05434 10.0001 7.0347 9.87335C7.01505 9.74655 7.03138 9.61679 7.08181 9.49881C7.13225 9.38084 7.21478 9.27938 7.32001 9.20597L10.9886 6.61739C11.0763 6.55086 11.1481 6.4655 11.1985 6.36761C11.2489 6.26971 11.2768 6.16176 11.28 6.05168V1.56025C11.2848 1.44228 11.32 1.32755 11.3821 1.22716C11.4442 1.12677 11.5312 1.04412 11.6347 0.987224C11.7382 0.930326 11.8545 0.901103 11.9726 0.902384C12.0907 0.903665 12.2064 0.935408 12.3086 0.994538L15.9086 3.68597C16 3.74944 16.1051 3.79031 16.2154 3.80521C16.3257 3.82011 16.4379 3.80862 16.5429 3.77168L20.7943 2.33168C20.9162 2.28883 21.0478 2.28131 21.1738 2.30998C21.2998 2.33865 21.4151 2.40235 21.5065 2.49373C21.5979 2.58511 21.6616 2.70046 21.6903 2.82648C21.719 2.95249 21.7114 3.08404 21.6686 3.20597V3.20597Z" stroke="white" stroke-width="1.5" stroke-linecap="round" stroke-linejoin="round"/>
<path d="M12.0686 11.9316L0.857178 23.1431" stroke="white" stroke-width="1.5" stroke-linecap="round" stroke-linejoin="round"/>
</g>
<defs>
<clipPath id="clip0_723_335">
<rect width="24" height="24" fill="white"/>
</clipPath>
</defs>
</svg>
