<svg width="24" height="24" viewBox="0 0 24 24" fill="none" xmlns="http://www.w3.org/2000/svg">
<g clip-path="url(#clip0_262_17620)">
<path d="M15.1028 20.6915C14.3284 21.4659 13.409 22.0802 12.3972 22.4993C11.3853 22.9184 10.3009 23.1341 9.20566 23.1341C6.99381 23.1341 4.87254 22.2555 3.30852 20.6915C1.7445 19.1274 0.865845 17.0062 0.865845 14.7943C0.865845 12.5825 1.7445 10.4612 3.30852 8.89718L11.3485 0.857178L15.1028 4.61146L7.73138 12C7.25754 12.5826 7.01657 13.3202 7.05507 14.0702C7.09357 14.8201 7.4088 15.5292 7.9398 16.0602C8.4708 16.5912 9.17985 16.9064 9.92981 16.9449C10.6798 16.9834 11.4174 16.7424 11.9999 16.2686L19.3714 8.89718L23.1428 12.6515L15.1028 20.6915Z" stroke="white" stroke-width="1.5" stroke-linecap="round" stroke-linejoin="round"/>
<path d="M15.7543 12.5315L19.5086 16.2858" stroke="white" stroke-width="1.5" stroke-linecap="round" stroke-linejoin="round"/>
<path d="M7.71423 4.49146L11.4685 8.24574" stroke="white" stroke-width="1.5" stroke-linecap="round" stroke-linejoin="round"/>
</g>
<defs>
<clipPath id="clip0_262_17620">
<rect width="24" height="24" fill="white"/>
</clipPath>
</defs>
</svg>
