<svg width="20" height="20" viewBox="0 0 20 20" fill="none" xmlns="http://www.w3.org/2000/svg">
<path d="M10 19.1273C10.938 19.1273 11.8668 18.9425 12.7335 18.5836C13.6001 18.2246 14.3875 17.6985 15.0508 17.0352C15.714 16.3719 16.2402 15.5845 16.5991 14.7179C16.9581 13.8513 17.1429 12.9224 17.1429 11.9844V8.013C17.143 6.25827 16.4971 4.56489 15.3286 3.25586" stroke="white" stroke-width="1.5" stroke-linecap="round" stroke-linejoin="round"/>
<path d="M2.85712 9.59961V11.9853C2.85664 13.3915 3.27119 14.7664 4.04883 15.938C4.82646 17.1095 5.93257 18.0255 7.22855 18.571" stroke="white" stroke-width="1.5" stroke-linecap="round" stroke-linejoin="round"/>
<path d="M13.5714 1.82804C11.9309 0.880881 9.98125 0.624205 8.15144 1.11448C6.32163 1.60475 4.76152 2.8018 3.81429 4.44233C3.42425 5.11594 3.14907 5.84978 3 6.61375" stroke="white" stroke-width="1.5" stroke-linecap="round" stroke-linejoin="round"/>
<path d="M9.25714 5.01431C9.78257 4.90523 10.3258 4.91548 10.8467 5.04429C11.3677 5.1731 11.853 5.41719 12.2671 5.75857C12.6811 6.09995 13.0133 6.52991 13.239 7.01674C13.4648 7.50358 13.5784 8.03487 13.5714 8.57146V10.8715" stroke="white" stroke-width="1.5" stroke-linecap="round" stroke-linejoin="round"/>
<path d="M12.6571 13.8711C12.1711 14.4126 11.5312 14.7926 10.8232 14.9604C10.1152 15.1283 9.37289 15.0758 8.69552 14.8102C8.01815 14.5445 7.43808 14.0783 7.03294 13.4739C6.62781 12.8695 6.41694 12.1558 6.42856 11.4283V8.57115C6.42584 8.0805 6.52305 7.59444 6.71427 7.14258" stroke="white" stroke-width="1.5" stroke-linecap="round" stroke-linejoin="round"/>
<path d="M10 8.72852V11.1142" stroke="white" stroke-width="1.5" stroke-linecap="round" stroke-linejoin="round"/>
</svg>
