<svg width="50" height="50" viewBox="0 0 50 50" fill="none" xmlns="http://www.w3.org/2000/svg">
<circle cx="25" cy="25" r="25" fill="#D53F34"/>
<path d="M30.7857 24.737C30.3883 23.4904 28.8375 22.5365 27.5011 22.6637C26.4929 22.7596 25.7756 23.2583 25.2528 24.099C25.1412 24.2784 25.0679 24.378 24.9996 24.4027C24.9312 24.378 24.8579 24.2786 24.7463 24.099C24.2235 23.2583 23.506 22.7598 22.498 22.6637C21.1616 22.5365 19.6108 23.4906 19.2135 24.737C18.7237 26.2727 19.0072 27.6137 20.1795 28.748C20.9048 29.4496 21.6087 30.1734 22.3235 30.8861C23.174 31.7338 24.0267 32.5816 24.8985 33.4492C24.8985 33.4492 24.9565 33.519 24.9967 33.5529C24.9977 33.5519 24.9986 33.551 24.9997 33.5498C25.0007 33.5508 25.0016 33.5517 25.0028 33.5529C25.0432 33.519 25.101 33.4492 25.101 33.4492C25.9728 32.5816 26.8255 31.7338 27.676 30.8861C28.3908 30.1734 29.0947 29.4496 29.82 28.748C30.9919 27.6137 31.2754 26.2727 30.7857 24.737Z" fill="white"/>
<path d="M35.9413 22.2659C34.7915 20.3447 33.1539 19.0262 30.9328 18.5327C30.8882 18.5228 30.844 18.5091 30.7989 18.503C30.2351 18.4269 29.8291 18.5721 29.671 18.944C29.478 19.3984 29.7108 19.7454 30.0134 20.0502C30.7166 20.7589 31.4069 21.4822 32.1393 22.1594C33.4457 23.3671 33.9735 24.86 33.8929 26.6195C33.827 28.0539 33.3284 29.2913 32.3195 30.3035C30.2856 32.344 28.2375 34.3702 26.2015 36.4086C25.844 36.7665 25.4515 37.0074 25 37.0212C24.5484 37.0074 24.1559 36.7665 23.7984 36.4086C21.7624 34.3702 19.7144 32.344 17.6805 30.3035C16.6715 29.2913 16.1729 28.0539 16.107 26.6195C16.0262 24.86 16.5543 23.3671 17.8606 22.1594C18.5931 21.4822 19.2834 20.7589 19.9865 20.0502C20.2889 19.7454 20.522 19.3984 20.3289 18.944C20.1708 18.5721 19.7648 18.4269 19.201 18.503C19.1559 18.5091 19.1119 18.5228 19.0671 18.5327C16.8462 19.0262 15.2084 20.3447 14.0586 22.2659C13.0791 23.9025 12.8638 25.72 13.0727 27.6011C13.2823 29.489 14.0348 31.1279 15.3561 32.472C17.3515 34.5023 19.3533 36.5275 21.4066 38.4976C22.4216 39.4714 23.656 39.9691 24.8987 39.9982V39.9997C24.9325 40.0003 24.9663 39.9991 25 39.999C25.0338 39.9991 25.0676 40.0003 25.1012 39.9997V39.9982C26.3439 39.9691 27.5784 39.4714 28.5933 38.4976C30.6467 36.5275 32.6485 34.5023 34.6438 32.472C35.9649 31.1279 36.7176 29.489 36.9272 27.6011C37.1363 25.72 36.9208 23.9025 35.9413 22.2659Z" fill="white"/>
<path d="M24.9999 19.0779C27.4884 19.0779 29.5057 17.0457 29.5057 14.539C29.5057 12.0322 27.4884 10 24.9999 10C22.5114 10 20.4941 12.0322 20.4941 14.539C20.4941 17.0457 22.5114 19.0779 24.9999 19.0779Z" fill="white"/>
</svg>
