<svg width="150" height="50" viewBox="0 0 150 50" fill="none" xmlns="http://www.w3.org/2000/svg">
<path d="M73.0586 34.2344C71.418 34.2344 69.9766 33.875 68.7344 33.1562C67.5 32.4297 66.5352 31.3984 65.8398 30.0625C65.1523 28.7188 64.8086 27.1289 64.8086 25.293C64.8086 23.4023 65.168 21.7891 65.8867 20.4531C66.6133 19.1094 67.5938 18.082 68.8281 17.3711C70.0625 16.6602 71.4492 16.3047 72.9883 16.3047C73.9727 16.3047 74.8906 16.4492 75.7422 16.7383C76.5938 17.0195 77.3516 17.4258 78.0156 17.957C78.6797 18.4805 79.2188 19.1016 79.6328 19.8203C80.0547 20.5312 80.3242 21.3203 80.4414 22.1875H76.7031C76.5859 21.7734 76.418 21.4062 76.1992 21.0859C75.9883 20.7578 75.7266 20.4844 75.4141 20.2656C75.1016 20.0391 74.7461 19.8672 74.3477 19.75C73.957 19.625 73.5234 19.5625 73.0469 19.5625C72.1562 19.5625 71.3711 19.7852 70.6914 20.2305C70.0195 20.668 69.4922 21.3125 69.1094 22.1641C68.7344 23.0156 68.5469 24.0469 68.5469 25.2578C68.5469 26.4688 68.7344 27.5 69.1094 28.3516C69.4844 29.2031 70.0078 29.8555 70.6797 30.3086C71.3594 30.7539 72.1602 30.9766 73.082 30.9766C73.918 30.9766 74.6289 30.8281 75.2148 30.5312C75.8086 30.2266 76.2617 29.8008 76.5742 29.2539C76.8945 28.707 77.0547 28.0625 77.0547 27.3203L77.8047 27.4375H73.3164V24.6602H80.6172V26.8633C80.6172 28.3945 80.293 29.7109 79.6445 30.8125C78.9961 31.9141 78.1016 32.7617 76.9609 33.3555C75.8281 33.9414 74.5273 34.2344 73.0586 34.2344ZM83.3711 34V20.8984H86.9922V34H83.3711ZM85.1758 19.2227C84.6367 19.2227 84.1758 19.043 83.793 18.6836C83.4102 18.3242 83.2188 17.8906 83.2188 17.3828C83.2188 16.875 83.4102 16.4453 83.793 16.0938C84.1758 15.7344 84.6367 15.5547 85.1758 15.5547C85.7227 15.5547 86.1875 15.7344 86.5703 16.0938C86.9531 16.4453 87.1445 16.875 87.1445 17.3828C87.1445 17.8906 86.9531 18.3242 86.5703 18.6836C86.1875 19.043 85.7227 19.2227 85.1758 19.2227ZM101.324 20.8984L96.7539 34H92.6523L88.0938 20.8984H91.9258L94.6797 30.2852H94.8203L97.5273 20.8984H101.324ZM107.969 34.2578C106.625 34.2578 105.465 33.9844 104.488 33.4375C103.512 32.8906 102.762 32.1133 102.238 31.1055C101.723 30.0898 101.465 28.8906 101.465 27.5078C101.465 26.1641 101.723 24.9844 102.238 23.9688C102.762 22.9531 103.496 22.1602 104.441 21.5898C105.395 21.0195 106.512 20.7344 107.793 20.7344C108.66 20.7344 109.469 20.875 110.219 21.1562C110.969 21.4297 111.625 21.8438 112.188 22.3984C112.75 22.9453 113.188 23.6367 113.5 24.4727C113.812 25.3008 113.969 26.2734 113.969 27.3906V28.375H102.906V26.1367H112.211L110.523 26.7227C110.523 26.0586 110.422 25.4805 110.219 24.9883C110.016 24.4961 109.711 24.1172 109.305 23.8516C108.906 23.5781 108.41 23.4414 107.816 23.4414C107.223 23.4414 106.719 23.5781 106.305 23.8516C105.898 24.125 105.586 24.4961 105.367 24.9648C105.148 25.4336 105.039 25.9727 105.039 26.582V28.1641C105.039 28.875 105.164 29.4844 105.414 29.9922C105.664 30.4922 106.012 30.8789 106.457 31.1523C106.91 31.418 107.43 31.5508 108.016 31.5508C108.422 31.5508 108.789 31.4922 109.117 31.375C109.445 31.2578 109.727 31.0859 109.961 30.8594C110.203 30.6328 110.383 30.3594 110.5 30.0391L113.852 30.2617C113.688 31.0664 113.344 31.7695 112.82 32.3711C112.305 32.9648 111.637 33.4297 110.816 33.7656C109.996 34.0938 109.047 34.2578 107.969 34.2578ZM121.422 34.2578C120.102 34.2578 118.957 33.9766 117.988 33.4141C117.027 32.8438 116.285 32.0547 115.762 31.0469C115.246 30.0312 114.988 28.8516 114.988 27.5078C114.988 26.1484 115.246 24.9648 115.762 23.957C116.285 22.9414 117.027 22.1523 117.988 21.5898C118.957 21.0195 120.102 20.7344 121.422 20.7344C122.75 20.7344 123.895 21.0195 124.855 21.5898C125.824 22.1523 126.566 22.9414 127.082 23.957C127.605 24.9648 127.867 26.1484 127.867 27.5078C127.867 28.8516 127.605 30.0312 127.082 31.0469C126.566 32.0547 125.824 32.8438 124.855 33.4141C123.895 33.9766 122.75 34.2578 121.422 34.2578ZM121.445 31.4219C122.047 31.4219 122.551 31.2539 122.957 30.918C123.363 30.5742 123.668 30.1055 123.871 29.5117C124.082 28.918 124.188 28.2422 124.188 27.4844C124.188 26.7188 124.082 26.043 123.871 25.457C123.668 24.8711 123.363 24.4102 122.957 24.0742C122.551 23.7383 122.047 23.5703 121.445 23.5703C120.836 23.5703 120.324 23.7383 119.91 24.0742C119.504 24.4102 119.195 24.8711 118.984 25.457C118.781 26.043 118.68 26.7188 118.68 27.4844C118.68 28.2422 118.781 28.918 118.984 29.5117C119.195 30.1055 119.504 30.5742 119.91 30.918C120.324 31.2539 120.836 31.4219 121.445 31.4219ZM133.094 26.4297V34H129.473V20.8984H133.035V23.2305H133.164C133.461 22.457 133.934 21.8477 134.582 21.4023C135.23 20.957 136.043 20.7344 137.02 20.7344C137.926 20.7344 138.715 20.9336 139.387 21.332C140.066 21.7305 140.594 22.2969 140.969 23.0312C141.344 23.7656 141.531 24.6445 141.531 25.668V34H137.91V26.3125C137.91 25.5156 137.703 24.8906 137.289 24.4375C136.875 23.9766 136.305 23.7461 135.578 23.7461C135.094 23.7461 134.664 23.8555 134.289 24.0742C133.914 24.2852 133.621 24.5898 133.41 24.9883C133.199 25.3867 133.094 25.8672 133.094 26.4297Z" fill="white"/>
<path d="M146.266 34.2227C145.688 34.2227 145.199 34.0273 144.801 33.6367C144.402 33.2461 144.203 32.7617 144.203 32.1836C144.203 31.6055 144.402 31.1211 144.801 30.7305C145.199 30.3398 145.688 30.1445 146.266 30.1445C146.844 30.1445 147.332 30.3398 147.73 30.7305C148.129 31.1211 148.328 31.6055 148.328 32.1836C148.328 32.7617 148.129 33.2461 147.73 33.6367C147.332 34.0273 146.844 34.2227 146.266 34.2227Z" fill="#D53F34"/>
<circle cx="25" cy="25" r="25" fill="#D53F34"/>
<path d="M30.7864 24.737C30.389 23.4904 28.8382 22.5365 27.5018 22.6637C26.4937 22.7596 25.7763 23.2583 25.2536 24.099C25.1419 24.2784 25.0687 24.378 25.0003 24.4027C24.9319 24.378 24.8586 24.2786 24.747 24.099C24.2242 23.2583 23.5067 22.7598 22.4988 22.6637C21.1623 22.5365 19.6116 23.4906 19.2142 24.737C18.7245 26.2727 19.008 27.6137 20.1802 28.748C20.9055 29.4496 21.6094 30.1734 22.3243 30.8861C23.1747 31.7338 24.0274 32.5816 24.8992 33.4492C24.8992 33.4492 24.9572 33.519 24.9975 33.5529C24.9984 33.5519 24.9993 33.551 25.0005 33.5498C25.0014 33.5508 25.0024 33.5517 25.0035 33.5529C25.0439 33.519 25.1017 33.4492 25.1017 33.4492C25.9735 32.5816 26.8263 31.7338 27.6767 30.8861C28.3916 30.1734 29.0955 29.4496 29.8207 28.748C30.9926 27.6137 31.2761 26.2727 30.7864 24.737Z" fill="white"/>
<path d="M35.9413 22.2669C34.7915 20.3457 33.1539 19.0272 30.9328 18.5337C30.8882 18.5238 30.844 18.5101 30.7989 18.504C30.2351 18.4279 29.8291 18.5731 29.671 18.945C29.478 19.3993 29.7108 19.7464 30.0134 20.0511C30.7166 20.7599 31.4069 21.4832 32.1393 22.1603C33.4457 23.3681 33.9735 24.861 33.8929 26.6205C33.827 28.0549 33.3284 29.2923 32.3195 30.3045C30.2856 32.345 28.2375 34.3712 26.2015 36.4096C25.844 36.7675 25.4515 37.0083 25 37.0222C24.5484 37.0083 24.1559 36.7675 23.7984 36.4096C21.7624 34.3712 19.7144 32.345 17.6805 30.3045C16.6715 29.2923 16.1729 28.0549 16.107 26.6205C16.0262 24.861 16.5543 23.3681 17.8606 22.1603C18.5931 21.4832 19.2834 20.7599 19.9865 20.0511C20.2889 19.7464 20.522 19.3993 20.3289 18.945C20.1708 18.5731 19.7648 18.4279 19.201 18.504C19.1559 18.5101 19.1119 18.5238 19.0671 18.5337C16.8462 19.0272 15.2084 20.3457 14.0586 22.2669C13.0791 23.9035 12.8638 25.721 13.0727 27.602C13.2823 29.49 14.0348 31.1288 15.3561 32.473C17.3515 34.5032 19.3533 36.5285 21.4066 38.4986C22.4216 39.4723 23.656 39.9701 24.8987 39.9992V40.0007C24.9325 40.0013 24.9663 40.0001 25 39.9999C25.0338 40.0001 25.0676 40.0013 25.1012 40.0007V39.9992C26.3439 39.9701 27.5784 39.4723 28.5933 38.4986C30.6467 36.5285 32.6485 34.5032 34.6438 32.473C35.965 31.1288 36.7176 29.49 36.9272 27.602C37.1363 25.721 36.9208 23.9035 35.9413 22.2669Z" fill="white"/>
<path d="M25.0001 19.0779C27.4886 19.0779 29.5059 17.0457 29.5059 14.539C29.5059 12.0322 27.4886 10 25.0001 10C22.5116 10 20.4943 12.0322 20.4943 14.539C20.4943 17.0457 22.5116 19.0779 25.0001 19.0779Z" fill="white"/>
</svg>
