<svg width="30" height="30" viewBox="0 0 30 30" fill="none" xmlns="http://www.w3.org/2000/svg">
<path d="M8.12495 3.75C12.1177 3.75 14.9999 7.04631 14.9999 11.927C14.9743 19.0185 9.6433 24.0323 1.95259 24.9952C1.23908 25.0845 0.963955 24.0961 1.62101 23.8039C4.572 22.4917 6.0624 20.8266 6.25491 19.1785C6.39873 17.9472 5.72936 16.8686 4.88886 16.6666C2.70988 16.143 1.24995 13.4295 1.24995 10.625C1.24995 6.82804 4.32799 3.75 8.12495 3.75Z" fill="#D53F34"/>
<path d="M23.1249 3.75C27.1177 3.75 30 7.04631 29.9999 11.927C29.9743 19.0185 24.6433 24.0323 16.9526 24.9952C16.2391 25.0845 15.964 24.0961 16.621 23.8039C19.572 22.4917 21.0624 20.8266 21.2549 19.1785C21.3987 17.9472 20.7294 16.8686 19.8889 16.6666C17.7099 16.143 16.2499 13.4295 16.2499 10.625C16.2499 6.82804 19.328 3.75 23.1249 3.75Z" fill="#D53F34"/>
</svg>
