<svg width="40" height="40" viewBox="0 0 40 40" fill="none" xmlns="http://www.w3.org/2000/svg">
<g clip-path="url(#clip0_328_52)">
<path d="M29.1667 5C34.2293 5 38.3333 9.10406 38.3333 14.1667C38.3333 17.906 36.3868 21.524 33.4815 22.2222C32.3608 22.4915 31.4683 23.9296 31.6601 25.5714C31.9167 27.7689 33.9039 29.989 37.8386 31.7386C38.7147 32.1281 38.3478 33.446 37.3965 33.3269C27.1422 32.0431 20.0342 25.358 20.0001 15.8997C20 9.39508 23.843 5 29.1667 5Z" fill="#D53F34"/>
<path d="M9.16655 5C14.2292 5 18.3332 9.10406 18.3332 14.1667C18.3332 17.906 16.3866 21.524 13.4813 22.2222C12.3607 22.4915 11.4682 23.9296 11.6599 25.5714C11.9166 27.7689 13.9038 29.989 17.8385 31.7386C18.7145 32.1281 18.3477 33.446 17.3964 33.3269C7.14208 32.0431 0.0341018 25.358 9.55829e-07 15.8997C-0.000122429 9.39508 3.84286 5 9.16655 5Z" fill="#D53F34"/>
</g>
<defs>
<clipPath id="clip0_328_52">
<rect width="40" height="40" fill="white"/>
</clipPath>
</defs>
</svg>
