<svg width="120" height="120" viewBox="0 0 120 120" fill="none" xmlns="http://www.w3.org/2000/svg">
<circle cx="60" cy="60" r="60" fill="#D53F34"/>
<path d="M63.1903 18.986L61.9434 9L64.1946 9.34858L64.7406 16.2356L64.8257 16.2487L67.6695 9.88664L69.6 10.1856L70.3001 17.1161L70.3851 17.1293L73.075 10.7236L75.3262 11.0722L70.991 20.1938L68.9819 19.8827L68.1437 13.3514L68.0652 13.3393L65.2059 19.2981L63.1903 18.986Z" fill="white"/>
<path d="M75.6319 22.0866C75.2034 21.9017 74.8503 21.6619 74.5726 21.3671C74.3007 21.07 74.1336 20.7331 74.0713 20.3563C74.0089 19.9795 74.0757 19.5732 74.2715 19.1375C74.4388 18.7652 74.6464 18.4859 74.8942 18.2996C75.1438 18.1094 75.4225 17.9885 75.7304 17.9369C76.0384 17.8853 76.3617 17.8854 76.7005 17.9369C77.0393 17.9885 77.3855 18.0718 77.7393 18.1866C78.1475 18.3201 78.4788 18.4205 78.7333 18.4878C78.9878 18.555 79.1857 18.5765 79.3269 18.5523C79.4739 18.5259 79.5785 18.4434 79.6408 18.3048L79.6542 18.2751C79.777 18.0018 79.7833 17.7515 79.6731 17.5242C79.5669 17.2987 79.3541 17.1171 79.0348 16.9793C78.6993 16.8345 78.3975 16.7918 78.1296 16.8511C77.8674 16.9083 77.6541 17.0338 77.4898 17.2277L75.811 16.3402C76.0815 15.9745 76.4119 15.701 76.8024 15.5195C77.1946 15.3341 77.6304 15.2502 78.1099 15.2679C78.5952 15.2834 79.1087 15.408 79.6504 15.6418C80.0263 15.804 80.3665 16.0028 80.6709 16.2382C80.9754 16.4736 81.22 16.7399 81.405 17.0372C81.5957 17.3323 81.7058 17.6565 81.7353 18.0097C81.7648 18.3629 81.6914 18.7356 81.5152 19.1277L79.502 23.6074L77.7132 22.8357L78.1298 21.9088L78.0812 21.8879C77.8778 22.0507 77.6495 22.1721 77.3964 22.2521C77.145 22.328 76.8716 22.3566 76.576 22.3379C76.2821 22.3151 75.9675 22.2314 75.6319 22.0866ZM76.743 21.048C77.0179 21.1666 77.2844 21.2178 77.5427 21.2015C77.8068 21.1831 78.0384 21.108 78.2375 20.9764C78.4424 20.8426 78.5965 20.6608 78.6998 20.4311L79.0175 19.724C78.9449 19.7353 78.8489 19.7341 78.7296 19.7204C78.6143 19.7085 78.4886 19.6874 78.3526 19.6571C78.2166 19.6268 78.0815 19.5945 77.9473 19.5602C77.8149 19.522 77.6946 19.489 77.5864 19.4612C77.3498 19.397 77.1326 19.3648 76.9349 19.3645C76.7389 19.3604 76.5677 19.3976 76.4213 19.4763C76.2808 19.5528 76.1713 19.6782 76.093 19.8525C75.9809 20.102 75.9884 20.3323 76.1156 20.5432C76.2428 20.7542 76.4519 20.9224 76.743 21.048Z" fill="white"/>
<path d="M88.5729 20.6437L87.7241 21.9149L83.9929 19.5228L84.8417 18.2516L88.5729 20.6437ZM86.6549 17.3505L88.368 18.4488L84.5954 24.0984C84.46 24.3012 84.4058 24.4811 84.4329 24.6382C84.4625 24.7916 84.5789 24.9334 84.7822 25.0637C84.8487 25.1064 84.9262 25.1484 85.0148 25.1896C85.1034 25.2309 85.1821 25.2632 85.2509 25.2867L84.681 26.7211C84.4562 26.6546 84.2466 26.5772 84.0523 26.4888C83.8616 26.4027 83.6813 26.3052 83.5113 26.1962C82.894 25.8005 82.5176 25.3445 82.382 24.8283C82.2488 24.3085 82.366 23.7733 82.7336 23.2228L86.6549 17.3505Z" fill="white"/>
<path d="M88.1692 29.871C87.6126 29.3706 87.2432 28.8241 87.0609 28.2314C86.8816 27.6355 86.8771 27.0354 87.0476 26.4309C87.221 25.8232 87.5615 25.2483 88.0692 24.7062C88.5828 24.1577 89.1411 23.7727 89.7441 23.5513C90.3504 23.3328 90.9626 23.2871 91.5809 23.4142C92.1992 23.5413 92.785 23.8536 93.3383 24.351C93.8134 24.7782 94.1493 25.2358 94.3457 25.7237C94.5454 26.2146 94.6061 26.7067 94.5277 27.2001C94.4493 27.6935 94.2258 28.1563 93.8571 28.5884L92.4317 27.3068C92.5728 27.1048 92.6638 26.8988 92.7047 26.6888C92.7455 26.4788 92.7302 26.2742 92.659 26.075C92.5877 25.8759 92.4593 25.6929 92.2738 25.5261C92.0395 25.3154 91.7762 25.1933 91.484 25.1596C91.1981 25.1257 90.8943 25.1845 90.5727 25.3359C90.2573 25.487 89.9414 25.7316 89.6248 26.0696C89.3083 26.4076 89.0837 26.7402 88.9512 27.0674C88.8219 27.3976 88.7837 27.704 88.8368 27.9866C88.893 28.2722 89.0384 28.5203 89.2727 28.731C89.533 28.965 89.8274 29.0828 90.1557 29.0843C90.487 29.0826 90.8067 28.9589 91.1147 28.7131L92.5402 29.9947C92.1352 30.3824 91.6855 30.6418 91.191 30.7729C90.6996 30.9008 90.1944 30.893 89.6754 30.7494C89.1594 30.6027 88.6573 30.3099 88.1692 29.871Z" fill="white"/>
<path d="M96.509 32.3308L93.0412 34.7887L91.8413 33.1634L99.8398 27.4941L101.001 29.0669L97.9357 31.2394L97.99 31.3131C98.4427 31.1952 98.8798 31.2113 99.3012 31.3612C99.7252 31.5147 100.102 31.8141 100.43 32.2595C100.731 32.6662 100.902 33.0868 100.945 33.5213C100.991 33.9532 100.908 34.3725 100.696 34.7793C100.487 35.1895 100.146 35.5621 99.6732 35.8969L95.8564 38.6022L94.6527 36.9716L98.1742 34.4756C98.5428 34.2143 98.7623 33.9172 98.8326 33.5842C98.9056 33.2548 98.8191 32.9235 98.5732 32.5903C98.4075 32.3659 98.2124 32.2051 97.988 32.1078C97.7671 32.0079 97.5291 31.9736 97.2741 32.0048C97.0217 32.0395 96.7667 32.1481 96.509 32.3308Z" fill="white"/>
<path d="M99.9744 48.2619C99.7285 47.4396 99.6982 46.6455 99.8836 45.8798C100.069 45.114 100.467 44.4361 101.077 43.8459C101.688 43.2558 102.506 42.8135 103.532 42.5191C104.566 42.2222 105.503 42.1608 106.342 42.3348C107.185 42.5077 107.894 42.8681 108.467 43.416C109.045 43.9627 109.457 44.6473 109.702 45.4697C109.948 46.292 109.979 47.0861 109.793 47.8518C109.612 48.6163 109.214 49.2922 108.598 49.8794C107.987 50.4696 107.164 50.9131 106.13 51.21C105.1 51.5056 104.166 51.5664 103.327 51.3923C102.489 51.2224 101.781 50.8641 101.203 50.3174C100.63 49.7694 100.22 49.0843 99.9744 48.2619ZM101.742 47.7546C101.885 48.2322 102.128 48.6135 102.471 48.8984C102.813 49.1833 103.242 49.3556 103.757 49.4152C104.278 49.4778 104.871 49.4136 105.536 49.2226C106.206 49.0303 106.743 48.7703 107.146 48.4425C107.551 48.1188 107.819 47.7464 107.951 47.3252C108.083 46.9041 108.078 46.4547 107.935 45.977C107.793 45.5035 107.551 45.1243 107.208 44.8394C106.865 44.5545 106.433 44.3787 105.911 44.312C105.391 44.2494 104.796 44.3142 104.126 44.5064C103.461 44.6975 102.926 44.9569 102.522 45.2847C102.124 45.6155 101.859 45.9914 101.727 46.4126C101.596 46.8338 101.6 47.2811 101.742 47.7546Z" fill="white"/>
<path d="M105.007 59.0106L109.261 58.8046L109.363 60.8081L101.964 61.1664L101.867 59.2406L103.211 59.1756L103.207 59.0978C102.77 58.9542 102.408 58.701 102.12 58.3379C101.837 57.9747 101.683 57.5206 101.66 56.9757C101.636 56.4916 101.724 56.0583 101.926 55.6759C102.133 55.2976 102.438 54.9946 102.842 54.7671C103.247 54.5438 103.738 54.4182 104.316 54.3902L109.027 54.1621L109.128 56.1656L104.774 56.3765C104.342 56.3974 104.004 56.5286 103.759 56.7701C103.519 57.0114 103.411 57.3221 103.435 57.7023C103.447 57.9444 103.513 58.1665 103.634 58.3686C103.759 58.5705 103.938 58.7309 104.169 58.8497C104.401 58.9728 104.68 59.0264 105.007 59.0106Z" fill="white"/>
<path d="M101.801 62.9196L109.155 63.7862L108.919 65.7134L107.629 65.5615L107.62 65.6388C108.06 65.8258 108.377 66.0876 108.571 66.4244C108.77 66.7617 108.845 67.1301 108.796 67.5297C108.783 67.6329 108.763 67.7395 108.737 67.8497C108.714 67.9647 108.683 68.0657 108.646 68.1529L106.844 67.9405C106.886 67.8496 106.926 67.7213 106.964 67.5558C107.006 67.3951 107.036 67.2439 107.053 67.1021C107.089 66.8142 107.055 66.5465 106.952 66.2989C106.853 66.0519 106.696 65.8481 106.48 65.6875C106.267 65.5317 106.012 65.4363 105.714 65.4011L101.557 64.9112L101.801 62.9196Z" fill="white"/>
<path d="M98.4695 75.8306C98.7811 75.114 99.1647 74.5355 99.6202 74.0953C100.074 73.6591 100.587 73.3841 101.16 73.2705C101.731 73.1608 102.347 73.2345 103.008 73.4918L102.219 75.3073C101.908 75.2056 101.616 75.1872 101.343 75.252C101.074 75.3184 100.833 75.4579 100.621 75.6703C100.408 75.8827 100.23 76.1541 100.086 76.4846C99.9478 76.8031 99.8742 77.0993 99.8655 77.3732C99.8551 77.6511 99.9055 77.8886 100.017 78.0856C100.13 78.2882 100.299 78.4362 100.522 78.5295C100.725 78.6143 100.922 78.6259 101.112 78.5641C101.3 78.5063 101.493 78.3843 101.689 78.1981C101.883 78.0159 102.089 77.7796 102.307 77.4893L102.974 76.6177C103.482 75.9455 104.03 75.4755 104.617 75.2078C105.208 74.9418 105.839 74.9488 106.509 75.2287C107.058 75.4578 107.474 75.8033 107.758 76.2653C108.044 76.733 108.191 77.2671 108.199 77.8678C108.209 78.4741 108.073 79.1018 107.791 79.7508C107.503 80.4117 107.137 80.9387 106.693 81.3317C106.246 81.7287 105.758 81.9789 105.228 82.0822C104.697 82.1896 104.161 82.1353 103.621 81.9193L104.408 80.1097C104.775 80.2254 105.117 80.1915 105.432 80.0079C105.745 79.8282 106 79.5135 106.195 79.0635C106.327 78.761 106.395 78.4835 106.399 78.2312C106.405 77.9845 106.356 77.7732 106.25 77.5973C106.144 77.4213 105.991 77.2918 105.792 77.2086C105.581 77.1204 105.374 77.1095 105.173 77.1758C104.975 77.2438 104.784 77.3638 104.598 77.5358C104.416 77.7135 104.238 77.917 104.066 78.1464L103.52 78.8567C103.263 79.2056 102.988 79.5119 102.695 79.7756C102.407 80.041 102.103 80.2482 101.784 80.3972C101.463 80.5501 101.128 80.6312 100.778 80.6404C100.432 80.6514 100.071 80.5779 99.6927 80.4201C99.1361 80.1877 98.7123 79.8485 98.4213 79.4024C98.1327 78.962 97.9884 78.4383 97.9883 77.8314C97.9922 77.2262 98.1526 76.5592 98.4695 75.8306Z" fill="white"/>
<path d="M100.168 88.0072L98.8715 87.1747L101.315 83.5201L102.612 84.3526L100.168 88.0072ZM103.53 86.1297L102.409 87.8077L96.6449 84.1079C96.438 83.9751 96.2544 83.9219 96.0941 83.9484C95.9375 83.9773 95.7927 84.0912 95.6596 84.2904C95.616 84.3555 95.5731 84.4315 95.531 84.5182C95.4888 84.605 95.4558 84.6821 95.4318 84.7495L93.9681 84.1903C94.0362 83.9701 94.1153 83.7648 94.2057 83.5744C94.2935 83.3876 94.3932 83.211 94.5045 83.0445C94.9087 82.4399 95.3743 82.0713 95.9012 81.9387C96.4318 81.8085 96.9779 81.9236 97.5395 82.2841L103.53 86.1297Z" fill="white"/>
<path d="M90.7459 87.6114C91.2541 87.0757 91.8111 86.7174 92.4169 86.5365C93.023 86.3617 93.6354 86.3582 94.2542 86.5259C94.8733 86.6997 95.461 87.0401 96.0174 87.5469C96.5803 88.0596 96.9712 88.6106 97.1901 89.1999C97.4092 89.7954 97.4502 90.3941 97.3133 90.9962C97.1765 91.6043 96.8541 92.1763 96.3458 92.712C95.8346 93.2509 95.276 93.6077 94.6699 93.7825C94.0641 93.9634 93.4517 93.9669 92.8326 93.7931C92.2138 93.6254 91.623 93.2852 91.0601 92.7724C90.5036 92.2656 90.1159 91.7145 89.8968 91.1191C89.6779 90.5297 89.6369 89.931 89.7736 89.3228C89.9106 88.7208 90.2346 88.1503 90.7459 87.6114ZM91.9112 88.6905C91.6796 88.9346 91.5552 89.2024 91.538 89.494C91.5239 89.7885 91.6008 90.0889 91.7684 90.3952C91.9331 90.7048 92.1724 91.0024 92.4862 91.2883C92.8032 91.577 93.1236 91.7891 93.4475 91.9245C93.7683 92.0631 94.0764 92.1133 94.3719 92.0752C94.6674 92.0371 94.9309 91.896 95.1625 91.6519C95.397 91.4046 95.5244 91.1336 95.5447 90.8389C95.562 90.5474 95.4899 90.2483 95.3285 89.9418C95.164 89.6383 94.9233 89.3422 94.6062 89.0535C94.2924 88.7677 93.9735 88.554 93.6494 88.4125C93.3224 88.2741 93.0095 88.2225 92.7108 88.2577C92.4123 88.299 92.1458 88.4433 91.9112 88.6905Z" fill="white"/>
<path d="M86.9998 91.4047L91.4713 97.1909L89.8919 98.3627L89.108 97.3483L89.0447 97.3953C89.2128 97.8351 89.2407 98.2405 89.1285 98.6115C89.019 98.9859 88.8005 99.2946 88.473 99.5376C88.3885 99.6003 88.2964 99.6604 88.1969 99.718C88.0965 99.7817 88.0013 99.8306 87.9113 99.8647L86.8155 98.4466C86.9116 98.4133 87.0337 98.3526 87.1817 98.2645C87.3288 98.1825 87.4605 98.0984 87.5767 98.0121C87.8126 97.8371 87.9857 97.6273 88.0958 97.3827C88.2087 97.1415 88.249 96.889 88.2168 96.6252C88.1838 96.3674 88.0767 96.1212 87.8954 95.8866L85.3677 92.6156L86.9998 91.4047Z" fill="white"/>
<path d="M79.8834 93.0345C80.1125 92.9126 80.3381 92.817 80.5602 92.7476C80.7783 92.6802 80.9663 92.6403 81.1241 92.6281L81.4199 94.168L81.355 94.1865C81.0026 94.2541 80.7319 94.3679 80.5429 94.5278C80.3481 94.6858 80.2714 94.9397 80.3129 95.2894L80.354 95.6197L86.2246 101.041L84.315 102.016L80.4445 97.9818L80.374 98.0178L81.5122 103.447L79.5908 104.427L78.3482 95.9922C78.286 95.5847 78.2923 95.1984 78.3671 94.8333C78.438 94.4701 78.5953 94.1385 78.8392 93.8384C79.081 93.5344 79.429 93.2664 79.8834 93.0345Z" fill="white"/>
<path d="M69.2713 104.322L69.4969 106.144L70.8308 104.851L71.6856 105.815L70.186 106.914L71.9928 107.396L71.5615 108.614L69.8363 107.891L70.3092 109.666L69.04 109.903L68.8079 108.083L67.4741 109.376L66.6232 108.398L68.1163 107.3L66.3161 106.816L66.7434 105.613L68.4686 106.335L68.0022 104.559L69.2713 104.322Z" fill="white"/>
<path d="M56.7142 101.01L57.9297 111L55.6796 110.645L55.1553 103.756L55.0702 103.743L52.2064 110.096L50.2768 109.791L49.5986 102.859L49.5136 102.845L46.8035 109.243L44.5535 108.887L48.9174 99.7789L50.9255 100.096L51.7431 106.63L51.8216 106.642L54.6996 100.692L56.7142 101.01Z" fill="white"/>
<path d="M44.2799 97.8711C44.7078 98.0573 45.0601 98.2982 45.3369 98.5939C45.6079 98.8917 45.7739 99.2292 45.835 99.6062C45.8961 99.9832 45.8281 100.389 45.6309 100.824C45.4624 101.196 45.2539 101.475 45.0055 101.66C44.7553 101.85 44.4762 101.97 44.1681 102.02C43.86 102.071 43.5366 102.07 43.198 102.017C42.8594 101.965 42.5134 101.88 42.16 101.765C41.7523 101.63 41.4213 101.528 41.167 101.46C40.9127 101.392 40.7149 101.37 40.5736 101.394C40.4265 101.42 40.3216 101.502 40.2589 101.641L40.2454 101.67C40.1217 101.943 40.1146 102.193 40.2241 102.421C40.3296 102.647 40.5418 102.829 40.8607 102.968C41.1957 103.114 41.4973 103.157 41.7655 103.099C42.0278 103.042 42.2415 102.918 42.4065 102.724L44.0824 103.617C43.8108 103.982 43.4794 104.254 43.0884 104.435C42.6956 104.619 42.2595 104.701 41.7801 104.682C41.2948 104.665 40.7817 104.539 40.2408 104.303C39.8654 104.14 39.5258 103.94 39.2222 103.704C38.9185 103.468 38.6747 103.2 38.4907 102.903C38.3009 102.607 38.1918 102.282 38.1635 101.929C38.1351 101.576 38.2097 101.203 38.3872 100.812L40.4148 96.3383L42.201 97.1156L41.7815 98.0412L41.83 98.0622C42.034 97.9 42.2627 97.7793 42.516 97.7002C42.7676 97.625 43.0412 97.5972 43.3367 97.6169C43.6305 97.6406 43.9449 97.7253 44.2799 97.8711ZM43.1655 98.9062C42.891 98.7868 42.6246 98.7348 42.3663 98.7502C42.1022 98.7679 41.8703 98.8422 41.6708 98.9732C41.4654 99.1064 41.3108 99.2877 41.2068 99.5171L40.8868 100.223C40.9594 100.212 41.0554 100.214 41.1747 100.228C41.29 100.24 41.4155 100.261 41.5514 100.292C41.6873 100.323 41.8223 100.356 41.9564 100.39C42.0887 100.429 42.2089 100.462 42.317 100.49C42.5534 100.555 42.7705 100.588 42.9682 100.589C43.1642 100.594 43.3355 100.557 43.4822 100.479C43.623 100.403 43.7328 100.278 43.8117 100.104C43.9246 99.8545 43.9178 99.6243 43.7913 99.413C43.6648 99.2016 43.4562 99.0327 43.1655 98.9062Z" fill="white"/>
<path d="M31.3338 99.2756L32.1866 98.007L35.9102 100.41L35.0574 101.679L31.3338 99.2756ZM33.2414 102.575L31.5317 101.471L35.3222 95.833C35.4582 95.6306 35.513 95.4509 35.4863 95.2938C35.4573 95.1403 35.3413 94.9981 35.1385 94.8671C35.0721 94.8243 34.9947 94.7821 34.9062 94.7406C34.8178 94.699 34.7392 94.6664 34.6705 94.6428L35.2449 93.2101C35.4695 93.2773 35.6788 93.3554 35.8729 93.4443C36.0632 93.5309 36.2432 93.629 36.4129 93.7385C37.0289 94.1361 37.4039 94.5932 37.5379 95.1099C37.6694 95.6301 37.5506 96.1649 37.1812 96.7143L33.2414 102.575Z" fill="white"/>
<path d="M31.768 90.0487C32.3229 90.5508 32.6906 91.0984 32.871 91.6916C33.0485 92.288 33.051 92.8882 32.8787 93.4922C32.7034 94.0994 32.361 94.6732 31.8517 95.2138C31.3363 95.7607 30.7768 96.144 30.1731 96.3636C29.5661 96.5803 28.9537 96.6241 28.3358 96.4951C27.7179 96.3662 27.1331 96.0521 26.5815 95.553C26.1076 95.1244 25.7733 94.6658 25.5783 94.1772C25.3802 93.6858 25.3211 93.1935 25.401 92.7003C25.4809 92.2071 25.7059 91.7451 26.076 91.3141L27.4974 92.6C27.3556 92.8015 27.2639 93.0073 27.2225 93.2171C27.181 93.427 27.1956 93.6317 27.2662 93.831C27.3368 94.0304 27.4646 94.2138 27.6496 94.3811C27.8833 94.5925 28.1462 94.7155 28.4383 94.75C28.7241 94.7847 29.0281 94.7269 29.3502 94.5765C29.666 94.4263 29.9827 94.1827 30.3003 93.8457C30.6179 93.5086 30.8435 93.1767 30.9771 92.8499C31.1075 92.5201 31.1466 92.2138 31.0944 91.9311C31.039 91.6453 30.8945 91.3968 30.6609 91.1854C30.4012 90.9505 30.1073 90.8318 29.779 90.8294C29.4477 90.8301 29.1276 90.9528 28.8188 91.1977L27.3973 89.9118C27.8036 89.5253 28.2541 89.2673 28.7489 89.1377C29.2408 89.0112 29.746 89.0206 30.2645 89.1657C30.78 89.314 31.2812 89.6083 31.768 90.0487Z" fill="white"/>
<path d="M23.436 87.5632L26.9116 85.1158L28.1063 86.7448L20.0898 92.3896L18.9338 90.8134L22.0059 88.6502L21.9517 88.5764C21.4987 88.6929 21.0617 88.6755 20.6407 88.5242C20.2172 88.3694 19.8417 88.0689 19.5144 87.6225C19.2154 87.2149 19.0452 86.7937 19.0039 86.3592C18.959 85.9271 19.0432 85.508 19.2567 85.1019C19.4675 84.6923 19.8097 84.3208 20.2831 83.9874L24.1085 81.2938L25.307 82.9281L21.7776 85.4133C21.4082 85.6734 21.1878 85.9699 21.1164 86.3026C21.0424 86.6319 21.1278 86.9635 21.3727 87.2973C21.5376 87.5223 21.7322 87.6837 21.9563 87.7817C22.1769 87.8822 22.4147 87.9172 22.6698 87.8868C22.9224 87.8529 23.1778 87.745 23.436 87.5632Z" fill="white"/>
<path d="M20.0211 71.6215C20.2644 72.4446 20.2921 73.2387 20.1043 74.0039C19.9166 74.7691 19.5164 75.4458 18.904 76.034C18.2915 76.6223 17.4719 77.0621 16.4451 77.3534C15.4099 77.6471 14.4731 77.7056 13.6346 77.5289C12.7918 77.3535 12.0846 76.9909 11.5129 76.4412C10.937 75.8927 10.5274 75.2069 10.2842 74.3838C10.041 73.5607 10.0133 72.7665 10.201 72.0014C10.3845 71.2374 10.7853 70.5628 11.4032 69.9775C12.0157 69.3892 12.8396 68.9482 13.8748 68.6545C14.9057 68.362 15.8405 68.3041 16.679 68.4808C17.5163 68.6532 18.2229 69.0137 18.7988 69.5622C19.3705 70.1119 19.7779 70.7984 20.0211 71.6215ZM18.2519 72.1234C18.1107 71.6453 17.869 71.2633 17.527 70.9773C17.185 70.6914 16.7567 70.5178 16.242 70.4566C15.7218 70.3924 15.1286 70.4547 14.4625 70.6437C13.7922 70.8339 13.2547 71.0923 12.85 71.4188C12.444 71.7413 12.1745 72.1129 12.0413 72.5336C11.9081 72.9544 11.9121 73.4038 12.0534 73.8819C12.1934 74.3558 12.4345 74.7357 12.7765 75.0217C13.1185 75.3076 13.5502 75.4848 14.0716 75.5531C14.5918 75.6173 15.187 75.5543 15.8574 75.3642C16.5235 75.1752 17.0589 74.9174 17.4636 74.5908C17.8628 74.2613 18.129 73.8862 18.2622 73.4654C18.3954 73.0446 18.392 72.5973 18.2519 72.1234Z" fill="white"/>
<path d="M15.0225 60.8561L10.7669 61.0492L10.6722 59.0454L18.0715 58.7097L18.1625 60.6357L16.819 60.6966L16.8227 60.7745C17.2584 60.9193 17.6197 61.1737 17.9067 61.5376C18.1892 61.9018 18.3411 62.3563 18.3624 62.9012C18.3853 63.3854 18.2952 63.8184 18.0922 64.2002C17.8845 64.5779 17.5782 64.8799 17.1733 65.1063C16.7681 65.3283 16.2765 65.4524 15.6985 65.4786L10.9863 65.6924L10.8916 63.6885L15.2465 63.491C15.6789 63.4714 16.0176 63.3412 16.2627 63.1004C16.5034 62.8599 16.6125 62.5495 16.5901 62.1693C16.5787 61.9272 16.5129 61.7049 16.3928 61.5023C16.2683 61.3 16.0904 61.1391 15.8593 61.0196C15.6279 60.8958 15.349 60.8413 15.0225 60.8561Z" fill="white"/>
<path d="M18.241 56.9595L10.8896 56.0705L11.1323 54.1441L12.4211 54.2999L12.4308 54.2226C11.9917 54.0343 11.6754 53.7715 11.482 53.4341C11.2843 53.0963 11.2105 52.7276 11.2609 52.3281C11.2738 52.225 11.2939 52.1184 11.3212 52.0084C11.3445 51.8934 11.375 51.7925 11.4127 51.7055L13.2144 51.9233C13.1718 52.0141 13.1312 52.1422 13.0926 52.3076C13.0501 52.4682 13.0199 52.6193 13.0021 52.7611C12.9658 53.0488 12.9989 53.3167 13.1012 53.5645C13.1991 53.8118 13.3558 54.0161 13.5714 54.1774C13.7831 54.3338 14.038 54.43 14.3361 54.4661L18.4918 54.9686L18.241 56.9595Z" fill="white"/>
<path d="M21.6135 44.0575C21.2995 44.7732 20.914 45.3505 20.4571 45.7893C20.0019 46.2241 19.4878 46.4974 18.9146 46.6093C18.3432 46.7173 17.7274 46.6416 17.0671 46.3823L17.8625 44.5692C18.1733 44.6719 18.4653 44.6912 18.7385 44.6273C19.0077 44.5616 19.2488 44.423 19.4619 44.2112C19.675 43.9995 19.8539 43.7286 19.9987 43.3986C20.1382 43.0805 20.2128 42.7845 20.2224 42.5106C20.2337 42.2327 20.1841 41.9951 20.0735 41.7978C19.9607 41.5948 19.7926 41.4463 19.5694 41.3523C19.3665 41.2669 19.17 41.2547 18.9797 41.3159C18.7911 41.3731 18.5984 41.4945 18.4016 41.6801C18.2065 41.8617 17.9998 42.0974 17.7814 42.387L17.1115 43.2566C16.6009 43.9272 16.0517 44.3954 15.4639 44.6613C14.8721 44.9255 14.2414 44.9166 13.5718 44.6346C13.024 44.4038 12.6088 44.057 12.3263 43.5942C12.0415 43.1256 11.8962 42.591 11.8905 41.9903C11.8825 41.3839 12.0206 40.7567 12.305 40.1086C12.5945 39.4485 12.9622 38.9227 13.4081 38.5311C13.8557 38.1354 14.3446 37.8868 14.8748 37.7851C15.4067 37.6793 15.9423 37.7353 16.4814 37.953L15.6886 39.7601C15.3216 39.6432 14.9803 39.6761 14.6645 39.8588C14.3506 40.0374 14.0951 40.3514 13.8979 40.8007C13.7654 41.1029 13.6966 41.3802 13.6917 41.6325C13.6845 41.8791 13.7335 42.0906 13.8389 42.2668C13.9443 42.4431 14.0964 42.5731 14.2952 42.6569C14.5062 42.7458 14.7127 42.7573 14.9146 42.6916C15.1124 42.6242 15.3042 42.5048 15.49 42.3334C15.6735 42.1563 15.8515 41.9533 16.024 41.7245L16.5728 41.0158C16.8313 40.6677 17.1071 40.3623 17.4003 40.0995C17.6894 39.835 17.9938 39.6287 18.3136 39.4808C18.635 39.3288 18.9706 39.2487 19.3204 39.2406C19.666 39.2307 20.0276 39.3053 20.4049 39.4642C20.9609 39.6984 21.3836 40.0389 21.6731 40.4859C21.9603 40.9272 22.1029 41.4513 22.1011 42.0582C22.0952 42.6635 21.9327 43.3299 21.6135 44.0575Z" fill="white"/>
<path d="M19.9515 31.8768L21.2457 32.7132L18.7908 36.3604L17.4966 35.524L19.9515 31.8768ZM16.5835 33.7441L17.7107 32.0695L23.4627 35.7867C23.6691 35.9202 23.8526 35.9739 24.0129 35.9479C24.1696 35.9195 24.3148 35.806 24.4485 35.6073C24.4923 35.5423 24.5354 35.4664 24.5778 35.3798C24.6203 35.2932 24.6536 35.2162 24.6777 35.1488L26.1396 35.7125C26.0709 35.9325 25.9911 36.1376 25.9002 36.3277C25.8117 36.5141 25.7115 36.6905 25.5997 36.8567C25.1935 37.46 24.7268 37.8272 24.1995 37.9582C23.6685 38.0868 23.1227 37.97 22.5623 37.6078L16.5835 33.7441Z" fill="white"/>
<path d="M29.3751 32.3007C28.8652 32.8349 28.3071 33.1915 27.7007 33.3706C27.0941 33.5436 26.4817 33.5452 25.8634 33.3756C25.2449 33.1999 24.6582 32.8578 24.1034 32.3493C23.5421 31.8349 23.153 31.2827 22.936 30.6927C22.7188 30.0966 22.6796 29.4978 22.8185 28.8961C22.9571 28.2884 23.2814 27.7174 23.7913 27.1832C24.3042 26.6459 24.864 26.2908 25.4706 26.1178C26.077 25.9387 26.6894 25.937 27.3079 26.1128C27.9262 26.2824 28.516 26.6244 29.0772 27.1388C29.6321 27.6473 30.0181 28.1996 30.2353 28.7957C30.4523 29.3857 30.4915 29.9845 30.3528 30.5923C30.2139 31.1939 29.8881 31.7634 29.3751 32.3007ZM28.2132 31.2181C28.4456 30.9747 28.5708 30.7073 28.589 30.4158C28.604 30.1214 28.5281 29.8207 28.3614 29.5138C28.1977 29.2038 27.9594 28.9054 27.6465 28.6186C27.3303 28.3289 27.0106 28.1159 26.6872 27.9795C26.3668 27.8399 26.0588 27.7888 25.7632 27.826C25.4676 27.8632 25.2036 28.0035 24.9713 28.2469C24.736 28.4935 24.6077 28.7641 24.5865 29.0587C24.5683 29.3502 24.6395 29.6495 24.7999 29.9565C24.9634 30.2604 25.2032 30.5573 25.5193 30.847C25.8322 31.1338 26.1505 31.3484 26.4741 31.4909C26.8007 31.6302 27.1135 31.6828 27.4123 31.6485C27.7109 31.6081 27.9779 31.4646 28.2132 31.2181Z" fill="white"/>
<path d="M33.132 28.5183L28.6789 22.7184L30.2619 21.5515L31.0426 22.5683L31.1061 22.5215C30.9394 22.0811 30.9127 21.6756 31.0261 21.305C31.1368 20.9309 31.3563 20.6229 31.6846 20.3809C31.7693 20.3184 31.8615 20.2586 31.9613 20.2013C32.0619 20.138 32.1572 20.0894 32.2473 20.0555L33.3386 21.4769C33.2424 21.5099 33.1201 21.5703 32.9719 21.6579C32.8245 21.7395 32.6925 21.8232 32.576 21.9091C32.3396 22.0834 32.1658 22.2927 32.0549 22.5369C31.9413 22.7777 31.9002 23.0301 31.9315 23.2941C31.9637 23.552 32.0701 23.7985 32.2506 24.0337L34.768 27.3123L33.132 28.5183Z" fill="white"/>
<path d="M40.255 26.9107C40.0255 27.0318 39.7997 27.1268 39.5774 27.1955C39.359 27.2623 39.1709 27.3016 39.013 27.3133L38.7222 25.7725L38.7871 25.7542C39.1398 25.6876 39.4109 25.5747 39.6003 25.4154C39.7957 25.2579 39.8732 25.0043 39.8328 24.6545L39.7927 24.324L33.9395 18.8848L35.8522 17.9158L39.7098 21.9617L39.7804 21.9259L38.6595 16.4937L40.5841 15.5188L41.7997 23.9578C41.8606 24.3654 41.8531 24.7516 41.7771 25.1166C41.7051 25.4795 41.5466 25.8106 41.3019 26.11C41.0591 26.4133 40.7101 26.6802 40.255 26.9107Z" fill="white"/>
<path d="M50.8986 15.6559L50.6787 13.8337L49.3408 15.1225L48.489 14.1559L49.992 13.0614L48.1868 12.5734L48.622 11.3576L50.3449 12.0853L49.8776 10.3085L51.1475 10.0757L51.3739 11.8967L52.7118 10.6079L53.5595 11.5885L52.063 12.6818L53.8617 13.171L53.4306 14.3728L51.7077 13.6451L52.1685 15.4231L50.8986 15.6559Z" fill="white"/>
<path d="M51.9863 67.7953C51.9916 68.0989 52.0799 68.3953 52.2417 68.6522C52.4036 68.9091 52.6328 69.1167 52.9043 69.2525C53.1755 69.4057 53.4817 69.4862 53.7932 69.4862C54.1047 69.4862 54.4109 69.4057 54.682 69.2525L67.2863 61.4568C67.5606 61.3246 67.792 61.1178 67.9539 60.86C68.1158 60.6023 68.2018 60.304 68.2018 59.9996C68.2018 59.6952 68.1158 59.397 67.9539 59.1392C67.792 58.8814 67.5606 58.6746 67.2863 58.5425L54.682 50.805C54.4109 50.6518 54.1047 50.5713 53.7932 50.5713C53.4817 50.5713 53.1755 50.6518 52.9043 50.805C52.6328 50.9408 52.4036 51.1485 52.2417 51.4054C52.0799 51.6623 51.9916 51.9586 51.9863 52.2622V67.7953Z" fill="white"/>
</svg>
